<svg xmlns="http://www.w3.org/2000/svg" viewBox="0 0 53.85 21.63"><defs><style>.cls-1{fill:#00507f;}</style></defs><title>tableta</title><g id="Layer_2" data-name="Layer 2"><g id="Layer_1-2" data-name="Layer 1"><path class="cls-1" d="M8.76,6.47A1.27,1.27,0,0,0,10,7.79h6.31a1.27,1.27,0,0,0,1.21-1.32,1.26,1.26,0,0,0-1.2-1.31H10A1.26,1.26,0,0,0,8.76,6.47Z"/><path class="cls-1" d="M43.93,0H20.83V0H9.67C4.33,0,0,4.85,0,10.81s4.32,10.8,9.66,10.81H30.84v0H43.92c5.48,0,9.93-4.83,9.93-10.79S49.41,0,43.93,0ZM24.42,6.72h5.13V8.23H26.28v2h2.51v1.44H26.28v2h3.27v1.51H24.42ZM2.69,10.81c0-4.62,3.35-8.36,7.49-8.36H20.83V19.19H10.17C6,19.18,2.68,15.43,2.69,10.81Zm37.5,4.35H38.56V10.31a7,7,0,0,1,0-.77l-2.12,4.34a.7.7,0,0,1-.26.3.7.7,0,0,1-.38.11h-.25a.68.68,0,0,1-.38-.11.72.72,0,0,1-.27-.3L32.82,9.54l0,.4c0,.13,0,.25,0,.37v4.85H31.23V6.73h1.62a.38.38,0,0,1,.29.12.45.45,0,0,1,.11.17l2.06,4.28.21.46c.07.16.13.32.19.48.06-.17.13-.33.2-.49l.21-.47L38.17,7a.62.62,0,0,1,.11-.17.38.38,0,0,1,.13-.09.41.41,0,0,1,.16,0h1.62Zm6.69,0H42.07V6.72h1.85v6.87h3Z"/></g></g></svg>