<svg xmlns="http://www.w3.org/2000/svg" fill="none" viewBox="0 0 637.54 375.86"><path d="M139.408 118.457h204.593l32.435 17.107h97.306" stroke="url(#t5zo1dzmza)" stroke-width="3.567"/><path d="M114.457 144.775h204.592l32.436 17.106h167.523" stroke="url(#m19h7q8s4b)" stroke-width="3.567"/><path d="M94.853 188.011h185.345" stroke="url(#1eh41v0ajc)" stroke-width="3.567"/><path d="M126.771 227.678h154.691l57.386 30.265h296.908" stroke="url(#tdmq82j4zd)" stroke-width="3.567"/><path d="M49.586 253.996h154.692l57.385 30.265h276.949" stroke="url(#5qo9ouo9ye)" stroke-width="3.567"/><g opacity=".1"><mask id="a" style="mask-type:alpha" maskUnits="userSpaceOnUse" x="0" y="3" width="471" height="373"><path transform="rotate(10.095 53.116 3.155)" fill="#C4C4C4" d="M53.116 3.155h424.242v303.03H53.116z"/></mask><g mask="url(#a)"><ellipse opacity=".2" cx="236.359" cy="192.756" rx="131.818" ry="115.151" transform="rotate(10.095 236.359 192.756)" fill="url(#7sukrkwrgg)"/><ellipse cx="236.359" cy="192.756" rx="131.818" ry="115.151" transform="rotate(10.095 236.359 192.756)" stroke="url(#zn56zg857h)" stroke-width="1.515"/><path d="M102.094 195.029a3.351 3.351 0 013.892-2.743l252.955 45.036a3.322 3.322 0 012.687 3.852c-9.162 51.46-58.306 85.749-109.765 76.587l-72.339-12.88c-51.572-9.181-86.12-58.195-77.43-109.852z" fill="url(#n1j2tvxboi)"/><path d="M103.718 185.727l259.554 46.211c-9.483 53.265-60.351 88.758-113.616 79.274l-65.739-11.704c-53.416-9.51-89.2-60.277-80.199-113.781z" fill="url(#yrwy3c5vlj)"/><path opacity=".399" d="M103.718 185.727l259.554 46.211c-9.483 53.265-60.351 88.758-113.616 79.274l-65.739-11.704c-53.416-9.51-89.2-60.277-80.199-113.781z" fill="url(#4yr3zcsbxk)"/><path opacity=".399" d="M103.718 185.726l259.554 46.212c-9.483 53.265-60.351 88.757-113.616 79.274l-65.739-11.704c-53.416-9.511-89.2-60.277-80.199-113.782z" fill="url(#h46btfa19l)"/><rect x="167.857" y="240.389" width="117.188" height="51.167" rx="17.331" transform="rotate(10.095 167.857 240.389)" fill="#0C1321"/><g filter="url(#g2gve931im)"><path d="M186.262 259.417a1.476 1.476 0 011.712-1.195l23.417 4.174a1.476 1.476 0 01-.518 2.907l-11.907-2.123-11.51-2.051a1.477 1.477 0 01-1.194-1.712z" fill="url(#wv3j57rbxn)"/><path d="M185.045 266.254a1.477 1.477 0 011.712-1.194l33.178 5.912a1.477 1.477 0 01-.518 2.907l-16.861-3.005-16.317-2.908a1.476 1.476 0 01-1.194-1.712z" fill="url(#4a73wd8mmo)"/><path d="M183.947 272.417a1.476 1.476 0 011.713-1.194l8.467 1.512a1.476 1.476 0 11-.519 2.906l-4.318-.771-4.149-.741a1.476 1.476 0 01-1.194-1.712z" fill="url(#7u0jkvh4rp)"/><path opacity=".2" d="M198.573 275.021a1.476 1.476 0 011.713-1.194l8.467 1.512a1.476 1.476 0 11-.519 2.906l-4.318-.771-4.149-.741a1.476 1.476 0 01-1.194-1.712z" fill="url(#mq58ev2djq)"/><path d="M213.199 277.625a1.476 1.476 0 011.713-1.194l8.467 1.512a1.476 1.476 0 11-.519 2.906l-4.318-.771-4.149-.741a1.476 1.476 0 01-1.194-1.712z" fill="url(#1s61be3pir)"/><path opacity=".2" d="M227.822 280.229a1.477 1.477 0 011.713-1.195l8.467 1.512a1.477 1.477 0 01-.519 2.907l-4.318-.771-4.149-.741a1.477 1.477 0 01-1.194-1.712z" fill="url(#kr2mgspurs)"/><path d="M242.446 282.832a1.477 1.477 0 011.713-1.194l13.342 2.38a1.476 1.476 0 01-.518 2.907l-6.794-1.212-6.549-1.168a1.477 1.477 0 01-1.194-1.713z" fill="url(#1zh5e4m0gt)"/><path opacity=".2" d="M181.802 283.074a1.512 1.512 0 011.755-1.224l71.605 12.754a1.513 1.513 0 01-.53 2.978l-36.366-6.478-35.24-6.276a1.513 1.513 0 01-1.224-1.754z" fill="url(#5jjj0tnu6u)"/><path d="M181.802 283.074a1.512 1.512 0 011.755-1.224l29.838 5.318a1.512 1.512 0 11-.531 2.977l-15.166-2.703-14.672-2.614a1.513 1.513 0 01-1.224-1.754z" fill="url(#ck2lp06fqv)"/><path opacity=".2" d="M214.616 264.466a1.477 1.477 0 011.713-1.195l4.826.863a1.475 1.475 0 11-.52 2.906l-2.47-.441-2.355-.421a1.477 1.477 0 01-1.194-1.712z" fill="url(#tfzcxy5ybw)"/><path d="M224.928 266.301a1.475 1.475 0 011.713-1.194l4.825.862a1.477 1.477 0 01-.52 2.907l-2.47-.442-2.355-.421a1.475 1.475 0 01-1.193-1.712z" fill="url(#2ncxb5vi0x)"/><path opacity=".2" d="M223.71 273.139a1.477 1.477 0 011.713-1.195l13.342 2.38a1.477 1.477 0 01-.519 2.907l-6.793-1.212-6.549-1.168a1.477 1.477 0 01-1.194-1.712z" fill="url(#l44m61j35y)"/><path opacity=".2" d="M241.978 276.044a1.477 1.477 0 011.713-1.195l15.135 2.699a1.477 1.477 0 01-.518 2.907l-7.703-1.374-7.432-1.325a1.477 1.477 0 01-1.195-1.712z" fill="url(#qfeyk6c9ez)"/><path d="M235.011 268.096a1.476 1.476 0 011.712-1.195l22.868 4.077a1.475 1.475 0 011.194 1.712 1.474 1.474 0 01-1.712 1.194l-11.628-2.072-11.24-2.004a1.476 1.476 0 01-1.194-1.712z" fill="url(#z0msvbc8bA)"/></g><path opacity=".07" fill-rule="evenodd" clip-rule="evenodd" d="M184.919 243.427c-9.423-1.677-18.423 4.602-20.1 14.025l-2.894 16.25c-1.14 6.405 1.396 12.614 6.097 16.462 8.273-20.952 38.395-32.851 71.223-27.006 16.13 2.872 30.169 9.539 40.34 18.249l.608-3.414c1.678-9.423-4.601-18.422-14.025-20.1l-81.249-14.466z" fill="url(#n8dn51gkjB)"/><ellipse cx="233.446" cy="209.109" rx="131.818" ry="28.528" transform="rotate(10.095 233.446 209.109)" fill="url(#mnwjpxxfyC)"/><ellipse cx="233.446" cy="209.109" rx="131.818" ry="28.528" transform="rotate(10.095 233.446 209.109)" fill="url(#fwk2qsoaeD)"/><path opacity=".566" d="M362.593 232.103c-.308 1.728-1.425 3.33-3.395 4.789-1.974 1.461-4.762 2.744-8.307 3.828-7.089 2.167-17.067 3.498-29.238 3.948-24.333.899-57.29-1.728-93.096-8.103-35.806-6.375-67.644-15.284-90.171-24.526-11.268-4.623-20.174-9.316-26.079-13.797-2.953-2.241-5.127-4.408-6.475-6.46-1.346-2.049-1.841-3.938-1.534-5.666.308-1.728 1.425-3.33 3.396-4.789 1.973-1.461 4.761-2.744 8.307-3.828 7.088-2.168 17.066-3.499 29.238-3.948 24.332-.9 57.289 1.727 93.095 8.102s67.644 15.285 90.171 24.527c11.269 4.623 20.174 9.316 26.079 13.797 2.953 2.241 5.127 4.407 6.475 6.46 1.346 2.049 1.842 3.938 1.534 5.666z" stroke="url(#doa2x1r9kE)" stroke-width="1.28"/><ellipse opacity=".523" cx="230.375" cy="223.358" rx="82.809" ry="11.83" transform="rotate(10.095 230.375 223.358)" fill="url(#n36bhrmhpF)"/><path opacity=".7" d="M229.023 225.307c14.829 2.64 26.87 4.669 27.619.463.749-4.206-10.666-9.757-25.495-12.397-14.829-2.64-27.457-1.37-28.206 2.836-.749 4.206 11.253 6.458 26.082 9.098z" fill="#16243A"/><path fill-rule="evenodd" clip-rule="evenodd" d="M227.845 182.006l19.512 3.474a9.371 9.371 0 017.584 10.87l-4.046 22.729a5.357 5.357 0 01-6.212 4.334l-27.42-4.882a5.354 5.354 0 01-4.334-6.211l4.046-22.73c.908-5.096 5.774-8.492 10.87-7.584z" fill="url(#tz3hyjq5tG)"/><path opacity=".447" fill-rule="evenodd" clip-rule="evenodd" d="M227.786 181.995l19.511 3.474a9.373 9.373 0 017.585 10.87l-4.047 22.729a5.356 5.356 0 01-6.212 4.334l-27.42-4.882a5.355 5.355 0 01-4.334-6.211l4.047-22.729a9.373 9.373 0 0110.87-7.585z" fill="url(#0j3fsvllmH)"/><path d="M233.821 210.457c40.571 7.223 73.614 12.221 79.398-20.27 5.785-32.491-22.415-64.687-62.986-71.91-40.572-7.223-78.151 13.26-83.936 45.752-5.785 32.491 26.952 39.204 67.524 46.428z" fill="url(#o8g3djxwuI)"/><path fill-rule="evenodd" clip-rule="evenodd" d="M233.821 210.457c40.571 7.223 73.614 12.221 79.398-20.27 5.785-32.491-22.415-64.687-62.986-71.91-40.572-7.223-78.151 13.26-83.936 45.752-5.785 32.491 26.952 39.204 67.524 46.428z" fill="url(#1gw8ncig1J)"/><path opacity=".184" fill-rule="evenodd" clip-rule="evenodd" d="M233.821 210.457c40.571 7.223 73.614 12.221 79.398-20.27 5.785-32.491-22.415-64.687-62.986-71.91-40.572-7.223-78.151 13.26-83.936 45.752-5.785 32.491 26.952 39.204 67.524 46.428z" fill="url(#wwvo1550wK)"/><mask id="b" style="mask-type:alpha" maskUnits="userSpaceOnUse" x="181" y="126" width="119" height="80"><path d="M235.421 201.495c32.249 5.742 58.515 9.706 63.175-16.468 4.66-26.174-17.706-52.046-49.955-57.788-32.249-5.741-62.17 10.822-66.83 36.996-4.66 26.173 21.361 31.518 53.61 37.26z" fill="#fff"/></mask><g mask="url(#b)"><path d="M235.421 201.495c32.249 5.742 58.515 9.706 63.175-16.468 4.66-26.174-17.706-52.046-49.955-57.788-32.249-5.741-62.17 10.822-66.83 36.996-4.66 26.173 21.361 31.518 53.61 37.26z" fill="#16243C"/><path opacity=".195" d="M248.641 127.239c22.52 4.01 40.22 17.835 47.263 34.725-7.951-5.717-17.666-9.916-28.496-11.844-32.25-5.742-62.17 10.822-66.83 36.995-.369 2.074-.546 4.017-.542 5.839-13.255-5.307-20.937-13.485-18.225-28.719 4.66-26.174 34.581-42.737 66.83-36.996z" fill="url(#sgy1x4iizM)"/></g><circle opacity=".842" cx="242.895" cy="166.449" r="33.347" transform="rotate(10.095 242.895 166.449)" fill="url(#61l84uq2tN)"/><g filter="url(#h6mhs5yb9O)"><circle cx="241.215" cy="167.626" r="8.699" transform="rotate(10.095 241.215 167.626)" fill="url(#zbb1n0tu2P)"/></g><path fill-rule="evenodd" clip-rule="evenodd" d="M241.493 168.632l56.443-51.688 46.621 53.727-103.064-2.039z" fill="url(#q4ufi676qQ)" style="mix-blend-mode:hard-light" opacity=".501"/><g filter="url(#3oya0bt8kR)"><path d="M303.723 128.096l-18.832-3.353a1.45 1.45 0 01-.945-.593 1.474 1.474 0 01-.248-1.094c.071-.382.291-.72.61-.94.32-.219.713-.303 1.092-.231l18.831 3.353c.382.064.722.277.945.594.224.316.314.709.249 1.093-.071.382-.291.72-.611.94-.319.22-.712.303-1.091.231z" fill="#76E2FF"/><path d="M324.002 131.707l-14.486-2.579a1.454 1.454 0 01-.945-.594 1.473 1.473 0 01-.248-1.093 1.464 1.464 0 011.702-1.172l14.485 2.579c.382.064.722.278.945.594.224.317.314.71.249 1.093a1.464 1.464 0 01-1.702 1.172z" fill="url(#ohsgjrhqxS)"/><path d="M332.691 133.254l-2.898-.516a1.454 1.454 0 01-.945-.594 1.468 1.468 0 01-.249-1.093c.072-.382.291-.721.611-.94.319-.22.712-.303 1.092-.231l2.898.515c.381.064.721.278.945.594.223.317.313.71.248 1.093a1.459 1.459 0 01-1.702 1.172zm10.617 8.99l-21.728-3.869a1.45 1.45 0 01-.945-.594 1.471 1.471 0 01-.249-1.093c.072-.382.292-.72.611-.94.319-.22.712-.303 1.092-.231l21.727 3.868c.382.064.722.278.945.594.224.317.314.71.249 1.093a1.461 1.461 0 01-1.702 1.172zm-30.82 8.706l-20.279-3.61a1.454 1.454 0 01-.945-.594 1.469 1.469 0 01-.249-1.093 1.465 1.465 0 011.703-1.172l20.279 3.611c.381.064.721.277.945.594.224.316.314.709.249 1.093-.072.382-.292.72-.611.94-.319.22-.712.303-1.092.231zm-27.374-19.07l-1.448-.258a1.45 1.45 0 01-.945-.593 1.47 1.47 0 01-.249-1.094 1.47 1.47 0 01.611-.94 1.452 1.452 0 011.092-.231l1.448.258c.381.063.722.277.946.594.224.316.314.71.249 1.093a1.455 1.455 0 01-1.704 1.171z" fill="#76E2FF"/><path d="M295.479 140.825l-13.037-2.321a1.454 1.454 0 01-.945-.594 1.473 1.473 0 01-.249-1.093 1.458 1.458 0 011.703-1.172l13.037 2.321c.381.064.721.278.945.594.224.317.313.71.249 1.093a1.469 1.469 0 01-.611.94c-.319.22-.712.303-1.092.232z" fill="url(#5h4q2en0yT)"/><path d="M304.168 142.372l-2.898-.516a1.45 1.45 0 01-.945-.594 1.467 1.467 0 01-.248-1.093c.071-.382.291-.72.61-.94a1.45 1.45 0 011.092-.231l2.898.516c.381.063.721.277.945.593.224.317.314.71.249 1.094-.072.382-.292.72-.611.94a1.452 1.452 0 01-1.092.231z" fill="#76E2FF"/><path d="M330.241 147.014l-20.279-3.611a1.45 1.45 0 01-.945-.593 1.47 1.47 0 01-.249-1.094 1.47 1.47 0 01.611-.94 1.452 1.452 0 011.092-.231l20.279 3.611c.381.063.721.277.945.593.224.317.313.71.249 1.094-.072.382-.292.72-.611.94a1.452 1.452 0 01-1.092.231z" fill="url(#9dw6o0ymzU)"/><path d="M312.698 136.926l-18.831-3.353a1.45 1.45 0 01-.945-.594 1.471 1.471 0 01-.249-1.093c.072-.382.292-.72.611-.94.319-.22.712-.303 1.092-.231l18.831 3.353c.381.063.721.277.945.593.224.317.313.71.249 1.094-.072.382-.292.72-.611.94a1.452 1.452 0 01-1.092.231zm20.068 17.635l-14.485-2.579a1.454 1.454 0 01-.945-.594 1.473 1.473 0 01-.249-1.093 1.457 1.457 0 011.703-1.172l14.485 2.579c.381.064.721.278.945.594.224.316.313.71.249 1.093a1.471 1.471 0 01-.611.94c-.319.22-.712.303-1.092.232zm-7.87 5.698l-11.589-2.064a1.447 1.447 0 01-.945-.594 1.47 1.47 0 01-.248-1.093c.071-.382.291-.72.61-.94a1.45 1.45 0 011.092-.231l11.589 2.063c.381.064.721.278.945.594.224.316.313.71.249 1.093a1.471 1.471 0 01-.611.94c-.319.22-.712.303-1.092.232z" fill="#76E2FF"/><path d="M307.514 157.164l-20.28-3.611a1.45 1.45 0 01-.945-.594 1.471 1.471 0 01-.249-1.093c.072-.382.292-.72.611-.94.32-.22.712-.303 1.092-.231l20.279 3.61c.382.064.722.278.945.594.224.317.314.71.249 1.093a1.466 1.466 0 01-.611.941 1.455 1.455 0 01-1.091.231z" fill="url(#84hx848z6V)"/><path d="M281.439 152.522l-1.448-.258a1.454 1.454 0 01-.945-.594 1.473 1.473 0 01-.249-1.093c.072-.383.292-.721.611-.94.319-.22.712-.303 1.092-.232l1.448.258c.382.064.722.277.946.594.224.316.314.71.249 1.093a1.466 1.466 0 01-.611.941c-.32.22-.713.303-1.093.231zm1.215-6.817l-1.448-.258a1.45 1.45 0 01-.945-.593 1.47 1.47 0 01-.249-1.094c.072-.382.292-.72.611-.94a1.452 1.452 0 011.092-.231l1.448.258c.381.063.722.277.946.594.224.316.314.71.249 1.093a1.455 1.455 0 01-1.704 1.171zm9.15 15.759l-13.037-2.321a1.454 1.454 0 01-.945-.594 1.473 1.473 0 01-.248-1.093 1.464 1.464 0 011.702-1.172l13.037 2.321c.381.064.721.278.945.594.224.317.314.71.249 1.093a1.457 1.457 0 01-1.703 1.172zm8.689 1.547l-2.897-.516a1.446 1.446 0 01-.945-.594 1.467 1.467 0 01-.249-1.093c.071-.382.291-.72.611-.94.319-.22.712-.303 1.091-.231l2.898.516c.381.064.721.277.945.594.224.316.314.709.249 1.093a1.47 1.47 0 01-.611.94c-.319.22-.712.303-1.092.231zm38.702-.14l-2.898-.516a1.45 1.45 0 01-.945-.594 1.467 1.467 0 01-.249-1.093 1.47 1.47 0 01.611-.94c.319-.22.712-.303 1.092-.231l2.897.516c.382.064.722.277.945.594.224.316.314.709.249 1.093-.071.382-.291.72-.611.94-.319.22-.712.303-1.091.231zm-11.179 5.04l-21.728-3.868a1.454 1.454 0 01-.945-.594 1.473 1.473 0 01-.249-1.093 1.457 1.457 0 011.703-1.172l21.727 3.869c.382.063.722.277.945.593.224.317.314.71.249 1.094-.071.382-.291.72-.611.94a1.45 1.45 0 01-1.091.231zm-31.643 1.465l-18.831-3.352a1.454 1.454 0 01-.945-.594 1.469 1.469 0 01-.249-1.093c.072-.382.291-.721.611-.94.319-.22.712-.303 1.092-.232l18.831 3.353c.381.064.721.278.945.594.224.316.313.71.249 1.093a1.471 1.471 0 01-.611.94c-.319.22-.712.303-1.092.231zm20.279 3.611l-14.485-2.579a1.45 1.45 0 01-.945-.594 1.468 1.468 0 01-.249-1.093 1.47 1.47 0 01.611-.94c.319-.22.712-.303 1.092-.231l14.485 2.579c.381.063.721.277.945.593.224.317.313.71.249 1.094-.072.382-.292.72-.611.94-.32.219-.712.303-1.092.231zm15.933 2.837l-10.135-1.805a1.45 1.45 0 01-.949-.592 1.475 1.475 0 01-.251-1.096c.072-.382.292-.72.611-.94.32-.22.712-.303 1.092-.231l10.135 1.804c.382.063.724.276.949.593.225.317.315.711.25 1.095a1.461 1.461 0 01-1.702 1.172zm-.121 7.072l-5.794-1.031a1.454 1.454 0 01-.945-.594 1.468 1.468 0 01-.249-1.093c.072-.382.291-.721.611-.94.319-.22.712-.303 1.092-.231l5.794 1.031c.381.064.721.278.945.594.224.316.313.71.249 1.093a1.471 1.471 0 01-.611.94c-.319.22-.712.303-1.092.231z" fill="#76E2FF"/><path d="M303.839 177.8l-20.28-3.61a1.454 1.454 0 01-.945-.594 1.473 1.473 0 01-.248-1.093 1.459 1.459 0 011.702-1.172l20.28 3.611c.381.064.721.277.945.594.224.316.313.709.248 1.093-.071.382-.291.72-.61.94-.32.22-.712.303-1.092.231z" fill="url(#wni0ksdneW)"/><path d="M277.765 173.158l-1.448-.258a1.45 1.45 0 01-.945-.594 1.471 1.471 0 01-.249-1.093c.072-.382.292-.72.611-.94.32-.22.712-.303 1.092-.231l1.448.258c.382.063.722.277.946.593.225.317.314.71.25 1.094a1.469 1.469 0 01-.612.94 1.45 1.45 0 01-1.093.231z" fill="#76E2FF"/><path d="M288.129 182.102l-13.036-2.321a1.45 1.45 0 01-.945-.594 1.467 1.467 0 01-.249-1.093 1.47 1.47 0 01.611-.94c.319-.22.712-.303 1.092-.231l13.036 2.321c.381.064.721.277.945.594.224.316.314.709.249 1.093a1.47 1.47 0 01-.611.94c-.319.22-.712.303-1.092.231z" fill="url(#dl1q6zd5uX)"/><path d="M296.821 183.65l-2.898-.516a1.454 1.454 0 01-.945-.594 1.469 1.469 0 01-.249-1.093 1.457 1.457 0 011.703-1.172l2.897.516c.382.064.722.278.945.594.224.316.314.71.249 1.093a1.464 1.464 0 01-1.702 1.172zm13.632 2.427l-2.897-.516a1.45 1.45 0 01-.945-.594 1.469 1.469 0 01-.249-1.093 1.464 1.464 0 011.702-1.172l2.898.516c.381.064.721.278.945.594.224.317.314.71.249 1.093a1.465 1.465 0 01-1.703 1.172zm19.341 3.443l-10.135-1.804a1.452 1.452 0 01-.949-.593 1.473 1.473 0 01-.251-1.095c.072-.382.292-.72.611-.94.32-.22.712-.303 1.092-.231l10.135 1.804c.382.063.724.276.949.593.225.316.315.711.25 1.095-.071.382-.291.72-.611.94-.319.22-.712.303-1.091.231z" fill="#76E2FF"/><path d="M314.395 179.745l-1.448-.258a1.454 1.454 0 01-.945-.594 1.472 1.472 0 01-.249-1.093c.072-.382.292-.721.611-.94.319-.22.712-.303 1.092-.231l1.448.257c.382.064.722.277.946.594.224.316.314.71.249 1.094a1.464 1.464 0 01-1.704 1.171z" fill="url(#cpl81b1l0Y)"/></g></g></g><g opacity=".2"><mask id="c" style="mask-type:alpha" maskUnits="userSpaceOnUse" x="71" y="0" width="472" height="374"><path transform="rotate(10.095 124.741 .4)" fill="#C4C4C4" d="M124.741.401h424.242v303.03H124.741z"/></mask><g mask="url(#c)"><ellipse opacity=".2" cx="307.982" cy="190.001" rx="131.818" ry="115.151" transform="rotate(10.095 307.982 190.001)" fill="url(#ss0e8usgaaa)"/><ellipse cx="307.982" cy="190.001" rx="131.818" ry="115.151" transform="rotate(10.095 307.982 190.001)" stroke="url(#incloelm0ab)" stroke-width="1.515"/><path d="M173.717 192.274a3.352 3.352 0 013.892-2.743l252.955 45.037a3.32 3.32 0 012.687 3.851c-9.162 51.46-58.306 85.749-109.765 76.587l-72.339-12.879c-51.572-9.182-86.119-58.196-77.43-109.853z" fill="url(#hd4yf6b5mac)"/><path d="M175.341 182.972l259.554 46.211c-9.483 53.266-60.351 88.758-113.616 79.274l-65.739-11.704c-53.416-9.51-89.199-60.277-80.199-113.781z" fill="url(#9gms25qspad)"/><path opacity=".399" d="M175.341 182.972l259.554 46.211c-9.483 53.266-60.351 88.758-113.616 79.274l-65.739-11.704c-53.416-9.51-89.199-60.277-80.199-113.781z" fill="url(#3r48qde6hae)"/><path opacity=".399" d="M175.341 182.972l259.554 46.211c-9.483 53.265-60.351 88.758-113.616 79.274l-65.739-11.704c-53.416-9.51-89.199-60.277-80.199-113.781z" fill="url(#2n0wykctkaf)"/><rect x="239.48" y="237.635" width="117.188" height="51.167" rx="17.331" transform="rotate(10.095 239.48 237.635)" fill="#0C1321"/><g filter="url(#33qfy69ycag)"><path d="M257.885 256.662a1.476 1.476 0 011.712-1.195l23.417 4.174a1.476 1.476 0 01-.518 2.907l-11.907-2.122-11.51-2.052a1.477 1.477 0 01-1.194-1.712z" fill="url(#tneltojqvah)"/><path d="M256.668 263.5a1.476 1.476 0 011.712-1.195l33.178 5.912a1.476 1.476 0 01-.517 2.907l-16.862-3.005-16.317-2.907a1.477 1.477 0 01-1.194-1.712z" fill="url(#od93l5oaaai)"/><path d="M255.57 269.663a1.477 1.477 0 011.713-1.195l8.467 1.512a1.475 1.475 0 11-.518 2.906l-4.319-.771-4.149-.74a1.477 1.477 0 01-1.194-1.712z" fill="url(#r5rtdxn2caj)"/><path opacity=".2" d="M270.196 272.267a1.477 1.477 0 011.713-1.195l8.467 1.512a1.475 1.475 0 11-.518 2.906l-4.319-.771-4.149-.74a1.477 1.477 0 01-1.194-1.712z" fill="url(#4svkk6803ak)"/><path d="M284.822 274.871a1.477 1.477 0 011.713-1.195l8.467 1.512a1.475 1.475 0 11-.519 2.906l-4.318-.771-4.149-.74a1.477 1.477 0 01-1.194-1.712z" fill="url(#mzgyse2s6al)"/><path opacity=".2" d="M299.445 277.474a1.475 1.475 0 011.713-1.194l8.467 1.511a1.476 1.476 0 01-.518 2.907l-4.319-.771-4.149-.741a1.477 1.477 0 01-1.194-1.712z" fill="url(#6kj3vq0uzam)"/><path d="M314.069 280.078a1.477 1.477 0 011.713-1.195l13.342 2.38a1.476 1.476 0 01-.518 2.907l-6.794-1.212-6.549-1.168a1.477 1.477 0 01-1.194-1.712z" fill="url(#gyv6b85x7an)"/><path opacity=".2" d="M253.425 280.319a1.514 1.514 0 011.755-1.224l71.605 12.754a1.511 1.511 0 11-.53 2.978l-36.366-6.477-35.24-6.277a1.513 1.513 0 01-1.224-1.754z" fill="url(#4c1ykdm3xao)"/><path d="M253.425 280.319a1.514 1.514 0 011.755-1.224l29.838 5.318c.822.146 1.37.932 1.224 1.754a1.514 1.514 0 01-1.755 1.224l-15.166-2.703-14.672-2.615a1.513 1.513 0 01-1.224-1.754z" fill="url(#6rk8hlxfcap)"/><path opacity=".2" d="M286.238 261.711a1.477 1.477 0 011.713-1.195l4.826.863a1.475 1.475 0 11-.52 2.906l-2.47-.441-2.355-.421a1.477 1.477 0 01-1.194-1.712z" fill="url(#hbnbvd4y4aq)"/><path d="M296.551 263.547a1.477 1.477 0 011.713-1.195l4.825.863a1.475 1.475 0 11-.519 2.906l-2.47-.441-2.356-.421a1.476 1.476 0 01-1.193-1.712z" fill="url(#uybrczx9ear)"/><path opacity=".2" d="M295.333 270.384a1.477 1.477 0 011.713-1.195l13.342 2.38a1.477 1.477 0 01-.519 2.907l-6.793-1.212-6.549-1.168a1.477 1.477 0 01-1.194-1.712z" fill="url(#0mdwnepnzas)"/><path opacity=".2" d="M313.602 273.289a1.475 1.475 0 011.712-1.195l15.135 2.7a1.475 1.475 0 11-.518 2.906l-7.703-1.374-7.432-1.325a1.476 1.476 0 01-1.194-1.712z" fill="url(#b1bgadrrnat)"/><path d="M306.634 265.341a1.475 1.475 0 011.712-1.194l22.868 4.076a1.477 1.477 0 01-.518 2.907l-11.628-2.073-11.24-2.004a1.476 1.476 0 01-1.194-1.712z" fill="url(#32z6hrnktau)"/></g><path opacity=".07" fill-rule="evenodd" clip-rule="evenodd" d="M256.542 240.672c-9.423-1.677-18.423 4.602-20.1 14.025l-2.893 16.25c-1.141 6.405 1.395 12.615 6.096 16.462 8.273-20.952 38.396-32.85 71.224-27.006 16.129 2.872 30.168 9.539 40.339 18.249l.608-3.414c1.678-9.423-4.601-18.422-14.025-20.1l-81.249-14.466z" fill="url(#thrbplt8wav)"/><ellipse cx="305.069" cy="206.354" rx="131.818" ry="28.528" transform="rotate(10.095 305.069 206.354)" fill="url(#e23npphigaw)"/><ellipse cx="305.069" cy="206.354" rx="131.818" ry="28.528" transform="rotate(10.095 305.069 206.354)" fill="url(#hku2lfilbax)"/><path opacity=".566" d="M434.216 229.348c-.308 1.728-1.424 3.33-3.395 4.789-1.974 1.461-4.762 2.744-8.307 3.828-7.088 2.167-17.067 3.498-29.238 3.948-24.333.899-57.289-1.727-93.096-8.102-35.806-6.375-67.644-15.285-90.171-24.527-11.268-4.623-20.174-9.316-26.079-13.797-2.953-2.241-5.127-4.407-6.475-6.46-1.346-2.049-1.841-3.938-1.534-5.666.308-1.728 1.425-3.33 3.396-4.789 1.973-1.461 4.761-2.744 8.307-3.828 7.088-2.167 17.066-3.498 29.238-3.948 24.332-.899 57.289 1.727 93.095 8.102s67.644 15.285 90.171 24.527c11.269 4.623 20.174 9.316 26.079 13.797 2.953 2.241 5.127 4.407 6.475 6.46 1.346 2.049 1.842 3.938 1.534 5.666z" stroke="url(#zf2plc9fday)" stroke-width="1.28"/><ellipse opacity=".523" cx="301.999" cy="220.603" rx="82.809" ry="11.83" transform="rotate(10.095 301.999 220.603)" fill="url(#tyu187op5az)"/><path opacity=".7" d="M300.648 222.552c14.829 2.64 26.87 4.67 27.619.463.749-4.206-10.666-9.756-25.495-12.396-14.829-2.641-27.457-1.371-28.206 2.835-.749 4.207 11.253 6.458 26.082 9.098z" fill="#16243A"/><path fill-rule="evenodd" clip-rule="evenodd" d="M299.47 179.251l19.512 3.474a9.371 9.371 0 017.584 10.87l-4.046 22.729a5.356 5.356 0 01-6.212 4.334l-27.42-4.882a5.354 5.354 0 01-4.334-6.211l4.046-22.73a9.373 9.373 0 0110.87-7.584z" fill="url(#m787e6pz6aA)"/><path opacity=".447" fill-rule="evenodd" clip-rule="evenodd" d="M299.411 179.24l19.511 3.474c5.096.908 8.492 5.774 7.585 10.87l-4.047 22.73a5.357 5.357 0 01-6.212 4.334l-27.42-4.882a5.357 5.357 0 01-4.334-6.212l4.047-22.729a9.373 9.373 0 0110.87-7.585z" fill="url(#1i0l0bkkgaB)"/><path d="M305.446 207.702c40.571 7.223 73.614 12.222 79.398-20.27 5.785-32.491-22.415-64.686-62.986-71.91-40.572-7.223-78.151 13.261-83.936 45.752-5.785 32.491 26.952 39.204 67.524 46.428z" fill="url(#2oa28ke16aC)"/><path fill-rule="evenodd" clip-rule="evenodd" d="M305.446 207.702c40.571 7.223 73.614 12.222 79.398-20.27 5.785-32.491-22.415-64.686-62.986-71.91-40.572-7.223-78.151 13.261-83.936 45.752-5.785 32.491 26.952 39.204 67.524 46.428z" fill="url(#1vhkv6bm0aD)"/><path opacity=".184" fill-rule="evenodd" clip-rule="evenodd" d="M305.446 207.702c40.571 7.223 73.614 12.222 79.398-20.27 5.785-32.491-22.415-64.686-62.986-71.91-40.572-7.223-78.151 13.261-83.936 45.752-5.785 32.491 26.952 39.204 67.524 46.428z" fill="url(#mx5uplfy7aE)"/><mask id="d" style="mask-type:alpha" maskUnits="userSpaceOnUse" x="252" y="123" width="119" height="80"><path d="M307.046 198.74c32.249 5.742 58.515 9.706 63.175-16.468 4.66-26.173-17.706-52.046-49.955-57.787-32.249-5.742-62.17 10.821-66.83 36.995-4.66 26.173 21.361 31.519 53.61 37.26z" fill="#fff"/></mask><g mask="url(#d)"><path d="M307.046 198.74c32.249 5.742 58.515 9.706 63.175-16.468 4.66-26.173-17.706-52.046-49.955-57.787-32.249-5.742-62.17 10.821-66.83 36.995-4.66 26.173 21.361 31.519 53.61 37.26z" fill="#16243C"/><path opacity=".195" d="M320.266 124.485c22.52 4.009 40.22 17.834 47.263 34.724-7.951-5.717-17.666-9.916-28.496-11.844-32.25-5.741-62.17 10.822-66.83 36.996-.369 2.073-.546 4.016-.542 5.838-13.255-5.306-20.937-13.484-18.225-28.719 4.66-26.174 34.581-42.737 66.83-36.995z" fill="url(#d3l80yjubaG)"/></g><circle opacity=".842" cx="314.517" cy="163.694" r="33.347" transform="rotate(10.095 314.517 163.694)" fill="url(#j417zd28kaH)"/><g filter="url(#853kt4orvaI)"><circle cx="312.834" cy="164.872" r="8.699" transform="rotate(10.095 312.834 164.872)" fill="url(#g0unk9b1laJ)"/></g><path fill-rule="evenodd" clip-rule="evenodd" d="M313.114 165.877l56.442-51.688 46.621 53.728-103.063-2.04z" fill="url(#ixt3zaryhaK)" style="mix-blend-mode:hard-light" opacity=".501"/><g filter="url(#n027gt85gaL)"><path d="M375.343 125.341l-18.831-3.352a1.45 1.45 0 01-.945-.594 1.469 1.469 0 01-.249-1.093c.071-.383.291-.721.611-.941a1.455 1.455 0 011.091-.231l18.832 3.353c.381.064.721.277.945.594.224.316.313.71.248 1.093-.071.382-.291.72-.61.94a1.45 1.45 0 01-1.092.231z" fill="#76E2FF"/><path d="M395.622 128.952l-14.485-2.579a1.45 1.45 0 01-.945-.594 1.468 1.468 0 01-.249-1.093 1.464 1.464 0 011.702-1.171l14.486 2.578c.381.064.721.278.945.594.223.317.313.71.248 1.093a1.459 1.459 0 01-1.702 1.172z" fill="url(#z6rtuonflaM)"/><path d="M404.311 130.499l-2.898-.516a1.45 1.45 0 01-.945-.594 1.471 1.471 0 01-.249-1.093c.072-.382.292-.72.611-.94.319-.22.712-.303 1.092-.231l2.898.516c.381.063.721.277.945.594.224.316.313.709.248 1.093-.071.382-.291.72-.61.94-.32.219-.712.303-1.092.231zm10.617 8.99L393.2 135.62a1.45 1.45 0 01-.945-.593 1.475 1.475 0 01-.249-1.094c.072-.382.292-.72.611-.94a1.452 1.452 0 011.092-.231l21.728 3.869c.381.063.721.277.945.593.223.317.313.71.248 1.094-.071.382-.291.72-.61.94-.32.219-.713.303-1.092.231zm-30.82 8.706l-20.279-3.61a1.454 1.454 0 01-.945-.594 1.472 1.472 0 01-.249-1.093c.072-.382.292-.721.611-.94.319-.22.712-.303 1.092-.232l20.279 3.611c.381.064.721.277.945.594.224.316.314.71.249 1.093a1.47 1.47 0 01-.611.94c-.319.22-.712.303-1.092.231zm-27.374-19.069l-1.448-.258a1.454 1.454 0 01-.945-.594 1.473 1.473 0 01-.249-1.093c.072-.383.292-.721.611-.94.319-.22.712-.303 1.092-.232l1.448.258c.382.064.722.277.946.594.224.316.314.71.249 1.093a1.466 1.466 0 01-.611.941c-.32.22-.713.303-1.093.231z" fill="#76E2FF"/><path d="M367.099 138.07l-13.037-2.321a1.454 1.454 0 01-.945-.594 1.468 1.468 0 01-.248-1.093 1.464 1.464 0 011.702-1.172l13.037 2.321c.381.064.721.278.945.594.224.317.314.71.249 1.093a1.457 1.457 0 01-1.703 1.172z" fill="url(#e4qpho1meaN)"/><path d="M375.788 139.617l-2.898-.516a1.45 1.45 0 01-.945-.594 1.47 1.47 0 01-.248-1.093c.071-.382.291-.72.61-.94a1.45 1.45 0 011.092-.231l2.898.516c.381.064.721.277.945.594.224.316.314.709.249 1.093a1.47 1.47 0 01-.611.94c-.319.22-.712.303-1.092.231z" fill="#76E2FF"/><path d="M401.861 144.259l-20.279-3.61a1.454 1.454 0 01-.945-.594 1.469 1.469 0 01-.249-1.093 1.457 1.457 0 011.703-1.172l20.279 3.611c.381.064.721.277.945.594.224.316.314.709.249 1.093a1.47 1.47 0 01-.611.94c-.319.22-.712.303-1.092.231z" fill="url(#xn0teczoaaO)"/><path d="M384.318 134.171l-18.831-3.353a1.45 1.45 0 01-.945-.593 1.475 1.475 0 01-.249-1.094c.072-.382.292-.72.611-.94.32-.219.712-.303 1.092-.231l18.831 3.353c.381.064.721.277.945.594.224.316.314.709.249 1.093a1.47 1.47 0 01-.611.94c-.319.22-.712.303-1.092.231zm20.068 17.635l-14.485-2.579a1.454 1.454 0 01-.945-.594 1.473 1.473 0 01-.249-1.093c.072-.382.292-.721.611-.94.32-.22.712-.303 1.092-.232l14.485 2.579c.381.064.721.278.945.594.224.317.314.71.249 1.093a1.457 1.457 0 01-1.703 1.172zm-7.87 5.698l-11.588-2.064a1.444 1.444 0 01-.945-.593 1.47 1.47 0 01-.249-1.094c.071-.382.291-.72.611-.94a1.452 1.452 0 011.092-.231l11.588 2.063c.381.064.721.278.945.594.224.317.314.71.249 1.093a1.457 1.457 0 01-1.703 1.172z" fill="#76E2FF"/><path d="M379.134 154.409l-20.28-3.611a1.447 1.447 0 01-.945-.594 1.466 1.466 0 01-.248-1.093c.071-.382.291-.72.61-.94.32-.219.713-.303 1.092-.231l20.28 3.611c.381.063.721.277.945.593.224.317.313.71.248 1.094-.071.382-.291.72-.61.94-.32.219-.713.303-1.092.231z" fill="url(#yql5ayyaiaP)"/><path d="M353.059 149.767l-1.448-.258a1.454 1.454 0 01-.945-.594 1.472 1.472 0 01-.249-1.093c.072-.382.292-.721.611-.94.32-.22.712-.303 1.092-.231l1.448.257a1.465 1.465 0 011.195 1.688c-.071.382-.291.72-.611.94-.32.22-.713.303-1.093.231zm1.215-6.816l-1.448-.258a1.454 1.454 0 01-.945-.594 1.473 1.473 0 01-.249-1.093c.072-.383.292-.721.611-.94.319-.22.712-.303 1.092-.232l1.448.258c.382.064.722.277.946.594.224.316.314.71.249 1.093a1.466 1.466 0 01-.611.941c-.32.22-.713.303-1.093.231zm9.15 15.758l-13.036-2.321a1.45 1.45 0 01-.945-.594 1.468 1.468 0 01-.249-1.093 1.464 1.464 0 011.702-1.171l13.037 2.321c.381.063.721.277.945.593.224.317.314.71.249 1.094a1.47 1.47 0 01-.611.94 1.452 1.452 0 01-1.092.231zm8.689 1.547l-2.897-.516a1.447 1.447 0 01-.945-.594 1.467 1.467 0 01-.249-1.093 1.47 1.47 0 01.611-.94 1.452 1.452 0 011.092-.231l2.897.516c.382.064.722.277.945.594.224.316.314.709.249 1.093-.071.382-.291.72-.611.94-.319.22-.712.303-1.092.231zm38.702-.14l-2.898-.516a1.45 1.45 0 01-.945-.593 1.47 1.47 0 01-.249-1.094 1.47 1.47 0 01.611-.94 1.452 1.452 0 011.092-.231l2.898.516c.381.064.721.278.945.594.224.316.313.71.248 1.093-.071.382-.291.72-.61.94a1.45 1.45 0 01-1.092.231zm-11.179 5.04l-21.728-3.868a1.454 1.454 0 01-.945-.594 1.473 1.473 0 01-.249-1.093c.072-.383.292-.721.611-.94.319-.22.712-.303 1.092-.232l21.728 3.869c.381.064.721.277.945.594.223.316.313.709.248 1.093-.071.382-.291.72-.61.94a1.45 1.45 0 01-1.092.231zm-31.643 1.466l-18.831-3.353a1.45 1.45 0 01-.945-.594 1.472 1.472 0 01-.249-1.093c.072-.382.292-.72.611-.94.319-.22.712-.303 1.092-.231l18.831 3.352c.381.064.721.278.945.594.224.317.313.71.249 1.093a1.469 1.469 0 01-.611.94c-.319.22-.712.303-1.092.232zm20.279 3.61l-14.485-2.579a1.45 1.45 0 01-.945-.594 1.471 1.471 0 01-.249-1.093c.072-.382.292-.72.611-.94.319-.22.712-.303 1.092-.231l14.485 2.579c.381.064.721.277.945.594.224.316.313.709.249 1.093-.072.382-.292.72-.611.94-.319.22-.712.303-1.092.231zm15.933 2.837l-10.135-1.805a1.446 1.446 0 01-.949-.592 1.47 1.47 0 01-.25-1.096c.071-.382.291-.72.61-.94.32-.219.712-.303 1.092-.231l10.135 1.805c.383.062.724.275.949.592.225.317.315.711.25 1.096-.071.382-.291.72-.61.94-.32.219-.713.303-1.092.231zm-.121 7.073l-5.794-1.032a1.45 1.45 0 01-.945-.594 1.467 1.467 0 01-.249-1.093c.072-.382.292-.72.611-.94.319-.22.712-.303 1.092-.231l5.794 1.031c.381.064.721.278.945.594.224.317.314.71.249 1.093a1.469 1.469 0 01-.611.94c-.319.22-.712.303-1.092.232z" fill="#76E2FF"/><path d="M375.459 175.045l-20.279-3.61a1.45 1.45 0 01-.945-.594 1.469 1.469 0 01-.249-1.093 1.461 1.461 0 011.702-1.172l20.28 3.611c.381.064.721.277.945.594.224.316.313.709.249 1.093-.072.382-.292.72-.611.94-.32.22-.712.303-1.092.231z" fill="url(#8xk99nsquaQ)"/><path d="M349.386 170.403l-1.449-.258a1.45 1.45 0 01-.945-.594 1.466 1.466 0 01-.248-1.093c.071-.382.291-.72.61-.94a1.45 1.45 0 011.092-.231l1.449.258c.381.063.721.277.945.593.225.317.314.71.25 1.094a1.473 1.473 0 01-.612.941 1.452 1.452 0 01-1.092.23z" fill="#76E2FF"/><path d="M359.75 179.347l-13.037-2.321a1.45 1.45 0 01-.945-.594 1.467 1.467 0 01-.249-1.093 1.47 1.47 0 01.611-.94c.319-.22.712-.303 1.092-.231l13.036 2.321c.382.064.722.277.945.594.224.316.314.71.249 1.093-.071.382-.291.72-.611.94-.319.22-.712.303-1.091.231z" fill="url(#r9ansn95oaR)"/><path d="M368.441 180.895l-2.898-.516a1.454 1.454 0 01-.945-.594 1.469 1.469 0 01-.249-1.093c.072-.382.291-.721.611-.94.319-.22.712-.303 1.092-.232l2.898.516c.381.064.721.278.945.594.223.317.313.71.248 1.093a1.464 1.464 0 01-1.702 1.172zm13.632 2.427l-2.897-.516a1.45 1.45 0 01-.945-.594 1.468 1.468 0 01-.249-1.093 1.47 1.47 0 01.611-.94c.319-.22.712-.303 1.092-.231l2.897.516c.382.063.721.277.945.593.224.317.314.71.249 1.094a1.47 1.47 0 01-.611.94 1.452 1.452 0 01-1.092.231zm19.341 3.444l-10.135-1.805a1.45 1.45 0 01-.949-.592 1.47 1.47 0 01-.25-1.096c.071-.382.291-.72.61-.94.32-.22.712-.303 1.092-.231l10.135 1.804c.383.063.724.276.949.593.225.317.315.711.25 1.095a1.466 1.466 0 01-.61.94c-.32.22-.713.303-1.092.232z" fill="#76E2FF"/><path d="M386.015 176.99l-1.448-.258a1.45 1.45 0 01-.945-.594 1.471 1.471 0 01-.249-1.093c.072-.382.292-.72.611-.94.32-.22.712-.303 1.092-.231l1.448.258c.382.063.722.277.946.593.225.317.314.71.25 1.094a1.469 1.469 0 01-.612.94 1.45 1.45 0 01-1.093.231z" fill="url(#jygnhjuxpaS)"/></g></g></g><mask id="e" style="mask-type:alpha" maskUnits="userSpaceOnUse" x="144" y="0" width="472" height="373"><path transform="rotate(10.095 197.611 0)" fill="#C4C4C4" d="M197.611 0h424.242v303.03H197.611z"/></mask><g mask="url(#e)"><ellipse opacity=".2" cx="380.851" cy="189.6" rx="131.818" ry="115.151" transform="rotate(10.095 380.851 189.6)" fill="url(#7pgb1ojoiaU)"/><ellipse cx="380.851" cy="189.6" rx="131.818" ry="115.151" transform="rotate(10.095 380.851 189.6)" stroke="url(#zvz45384zaV)" stroke-width="1.515"/><path d="M246.587 191.874a3.35 3.35 0 013.892-2.743l252.955 45.036a3.322 3.322 0 012.687 3.851c-9.162 51.46-58.306 85.749-109.765 76.587l-72.339-12.879c-51.571-9.182-86.119-58.196-77.43-109.852z" fill="url(#asnwmiijsaW)"/><path d="M248.211 182.571l259.554 46.212c-9.483 53.265-60.351 88.757-113.616 79.274l-65.739-11.704c-53.416-9.511-89.199-60.277-80.199-113.782z" fill="url(#jrbllxvl1aX)"/><path opacity=".399" d="M248.211 182.571l259.554 46.212c-9.483 53.265-60.351 88.757-113.616 79.274l-65.739-11.704c-53.416-9.511-89.199-60.277-80.199-113.782z" fill="url(#302uy69nhaY)"/><path opacity=".399" d="M248.211 182.571l259.554 46.211c-9.483 53.266-60.351 88.758-113.616 79.275l-65.739-11.705c-53.416-9.51-89.199-60.277-80.199-113.781z" fill="url(#4x928mur2aZ)"/><rect x="312.35" y="237.234" width="117.188" height="51.167" rx="17.331" transform="rotate(10.095 312.35 237.234)" fill="#0C1321"/><g filter="url(#849zfxhjjba)"><path d="M330.755 256.261a1.477 1.477 0 011.712-1.194l23.417 4.174a1.476 1.476 0 011.194 1.712 1.475 1.475 0 01-1.712 1.194l-11.907-2.122-11.51-2.052a1.476 1.476 0 01-1.194-1.712z" fill="url(#hh9tpfo4zbb)"/><path d="M329.538 263.099a1.477 1.477 0 011.713-1.195l33.178 5.913a1.477 1.477 0 01-.518 2.906l-16.862-3.004-16.316-2.908a1.476 1.476 0 01-1.195-1.712z" fill="url(#754k54nq3bc)"/><path d="M328.44 269.262a1.475 1.475 0 011.713-1.194l8.468 1.511a1.477 1.477 0 01-.519 2.907l-4.319-.771-4.149-.741a1.477 1.477 0 01-1.194-1.712z" fill="url(#toc0jbpxsbd)"/><path opacity=".2" d="M343.066 271.866a1.475 1.475 0 011.713-1.194l8.468 1.511a1.475 1.475 0 01-.519 2.907l-4.319-.771-4.149-.741a1.476 1.476 0 01-1.194-1.712z" fill="url(#l28zn8z18be)"/><path d="M357.693 274.47a1.475 1.475 0 011.713-1.194l8.467 1.511a1.476 1.476 0 01-.518 2.907l-4.319-.771-4.149-.741a1.476 1.476 0 01-1.194-1.712z" fill="url(#l5izb4ht1bf)"/><path opacity=".2" d="M372.315 277.074a1.477 1.477 0 011.713-1.195l8.468 1.512a1.475 1.475 0 11-.519 2.906l-4.319-.771-4.149-.74a1.478 1.478 0 01-1.194-1.712z" fill="url(#b4w79babybg)"/><path d="M386.939 279.677a1.475 1.475 0 011.713-1.194l13.342 2.38a1.475 1.475 0 11-.518 2.906l-6.794-1.212-6.548-1.168a1.477 1.477 0 01-1.195-1.712z" fill="url(#diy84ue01bh)"/><path opacity=".2" d="M326.296 279.919a1.51 1.51 0 011.754-1.224l71.605 12.754a1.513 1.513 0 01-.53 2.978l-36.366-6.478-35.24-6.277a1.51 1.51 0 01-1.223-1.753z" fill="url(#6re4liwb6bi)"/><path d="M326.295 279.919a1.512 1.512 0 011.755-1.224l29.838 5.317a1.512 1.512 0 11-.531 2.978l-15.166-2.703-14.672-2.614a1.513 1.513 0 01-1.224-1.754z" fill="url(#10r2sfr24bj)"/><path opacity=".2" d="M359.109 261.31a1.475 1.475 0 011.713-1.194l4.826.862a1.477 1.477 0 01-.52 2.907l-2.47-.442-2.355-.421a1.476 1.476 0 01-1.194-1.712z" fill="url(#w96yb9rtbbk)"/><path d="M369.421 263.146a1.475 1.475 0 011.713-1.194l4.825.862a1.477 1.477 0 01-.519 2.907l-2.47-.442-2.356-.421a1.476 1.476 0 01-1.193-1.712z" fill="url(#guotxkqy3bl)"/><path opacity=".2" d="M368.203 269.983a1.475 1.475 0 011.713-1.194l13.342 2.38a1.475 1.475 0 11-.519 2.906l-6.793-1.212-6.549-1.168a1.476 1.476 0 01-1.194-1.712z" fill="url(#0lkbft1fgbm)"/><path opacity=".2" d="M386.472 272.888a1.476 1.476 0 011.712-1.194l15.136 2.699a1.477 1.477 0 01-.519 2.907l-7.703-1.374-7.432-1.326a1.475 1.475 0 01-1.194-1.712z" fill="url(#nl89ibamibn)"/><path d="M379.504 264.941a1.476 1.476 0 011.712-1.195l22.868 4.076a1.477 1.477 0 01-.518 2.907l-11.628-2.073-11.24-2.003a1.477 1.477 0 01-1.194-1.712z" fill="url(#0nj9xle4dbo)"/></g><path opacity=".07" fill-rule="evenodd" clip-rule="evenodd" d="M329.411 240.272c-9.423-1.678-18.422 4.601-20.1 14.025l-2.893 16.249c-1.141 6.406 1.395 12.615 6.096 16.462 8.273-20.951 38.396-32.85 71.224-27.005 16.129 2.872 30.168 9.538 40.339 18.248l.608-3.413c1.678-9.423-4.601-18.423-14.025-20.1l-81.249-14.466z" fill="url(#hke7rit6ibp)"/><ellipse cx="377.939" cy="205.954" rx="131.818" ry="28.528" transform="rotate(10.095 377.939 205.954)" fill="url(#dp5dgx27cbq)"/><ellipse cx="377.939" cy="205.954" rx="131.818" ry="28.528" transform="rotate(10.095 377.939 205.954)" fill="url(#am85s1b88br)"/><path opacity=".566" d="M507.086 228.947c-.307 1.728-1.424 3.331-3.395 4.789-1.974 1.461-4.762 2.744-8.307 3.828-7.088 2.168-17.067 3.499-29.238 3.949-24.333.899-57.289-1.728-93.095-8.103s-67.645-15.284-90.171-24.526c-11.269-4.623-20.175-9.317-26.079-13.797-2.954-2.241-5.127-4.408-6.476-6.46-1.346-2.049-1.841-3.939-1.533-5.667.307-1.727 1.424-3.33 3.395-4.788 1.973-1.461 4.761-2.744 8.307-3.828 7.088-2.168 17.067-3.499 29.238-3.949 24.332-.899 57.289 1.728 93.095 8.103s67.645 15.284 90.171 24.526c11.269 4.623 20.174 9.316 26.079 13.797 2.954 2.241 5.127 4.408 6.476 6.46 1.346 2.049 1.841 3.939 1.533 5.666z" stroke="url(#7uiw73s4zbs)" stroke-width="1.28"/><ellipse opacity=".523" cx="374.869" cy="220.202" rx="82.809" ry="11.83" transform="rotate(10.095 374.869 220.202)" fill="url(#n8vqv32phbt)"/><path opacity=".7" d="M373.517 222.151c14.829 2.641 26.87 4.67 27.619.464.749-4.207-10.665-9.757-25.495-12.397-14.829-2.64-27.457-1.371-28.206 2.836-.749 4.206 11.253 6.457 26.082 9.097z" fill="#16243A"/><path fill-rule="evenodd" clip-rule="evenodd" d="M372.34 178.85l19.511 3.474c5.096.908 8.492 5.774 7.584 10.87l-4.046 22.73a5.357 5.357 0 01-6.212 4.334l-27.42-4.882a5.356 5.356 0 01-4.334-6.212l4.046-22.729a9.374 9.374 0 0110.871-7.585z" fill="url(#0y9rm02xobu)"/><path opacity=".447" fill-rule="evenodd" clip-rule="evenodd" d="M372.28 178.84l19.511 3.474a9.373 9.373 0 017.585 10.87l-4.047 22.729a5.355 5.355 0 01-6.211 4.334l-27.421-4.882a5.355 5.355 0 01-4.334-6.211l4.047-22.73c.907-5.096 5.774-8.491 10.87-7.584z" fill="url(#upjoi5he8bv)"/><path d="M378.316 207.301c40.571 7.224 73.614 12.222 79.399-20.269 5.784-32.492-22.416-64.687-62.987-71.91-40.572-7.224-78.151 13.26-83.936 45.751-5.785 32.492 26.953 39.205 67.524 46.428z" fill="url(#0cxzal2g0bw)"/><path fill-rule="evenodd" clip-rule="evenodd" d="M378.316 207.301c40.571 7.224 73.614 12.222 79.399-20.269 5.784-32.492-22.416-64.687-62.987-71.91-40.572-7.224-78.151 13.26-83.936 45.751-5.785 32.492 26.953 39.205 67.524 46.428z" fill="url(#6vb09wrfqbx)"/><path opacity=".184" fill-rule="evenodd" clip-rule="evenodd" d="M378.316 207.301c40.571 7.224 73.614 12.222 79.399-20.269 5.784-32.492-22.416-64.687-62.987-71.91-40.572-7.224-78.151 13.26-83.936 45.751-5.785 32.492 26.953 39.205 67.524 46.428z" fill="url(#68rxl228oby)"/><mask id="f" style="mask-type:alpha" maskUnits="userSpaceOnUse" x="325" y="122" width="119" height="81"><path d="M379.918 198.34c32.249 5.741 58.515 9.705 63.175-16.468 4.66-26.174-17.706-52.046-49.955-57.788-32.249-5.742-62.17 10.822-66.83 36.995-4.66 26.174 21.361 31.519 53.61 37.261z" fill="#fff"/></mask><g mask="url(#f)"><path d="M379.918 198.34c32.249 5.741 58.515 9.705 63.175-16.468 4.66-26.174-17.706-52.046-49.955-57.788-32.249-5.742-62.17 10.822-66.83 36.995-4.66 26.174 21.361 31.519 53.61 37.261z" fill="#16243C"/><path opacity=".195" d="M393.138 124.084c22.52 4.009 40.22 17.835 47.263 34.725-7.951-5.718-17.666-9.916-28.496-11.844-32.249-5.742-62.17 10.821-66.83 36.995-.369 2.073-.546 4.016-.542 5.839-13.255-5.307-20.937-13.485-18.225-28.72 4.66-26.173 34.581-42.737 66.83-36.995z" fill="url(#gvqf0s2y2bA)"/></g><circle opacity=".842" cx="387.385" cy="163.294" r="33.347" transform="rotate(10.095 387.385 163.294)" fill="url(#9hbuqkecubB)"/><g filter="url(#r1wpdvzejbC)"><circle cx="385.705" cy="164.471" r="8.699" transform="rotate(10.095 385.705 164.471)" fill="url(#fmomh4hzibD)"/></g><path fill-rule="evenodd" clip-rule="evenodd" d="M385.984 165.477l56.442-51.689 46.621 53.728-103.063-2.039z" fill="url(#zo4iwog68bE)" style="mix-blend-mode:hard-light" opacity=".501"/><g filter="url(#431p96vc5bF)"><path d="M448.212 124.941l-18.831-3.353a1.45 1.45 0 01-.945-.594 1.467 1.467 0 01-.249-1.093 1.47 1.47 0 01.611-.94c.319-.22.712-.303 1.092-.231l18.831 3.352c.381.064.721.278.945.594.224.317.313.71.249 1.093a1.458 1.458 0 01-1.703 1.172z" fill="#76E2FF"/><path d="M468.491 128.551l-14.485-2.579a1.447 1.447 0 01-.945-.594 1.467 1.467 0 01-.249-1.093 1.47 1.47 0 01.611-.94c.319-.22.712-.303 1.092-.231L469 125.693c.381.064.721.277.945.594.224.316.313.709.248 1.093-.071.382-.291.72-.61.94-.32.22-.712.303-1.092.231z" fill="url(#igvpyc1thbG)"/><path d="M477.18 130.098l-2.898-.515a1.454 1.454 0 01-.945-.594 1.473 1.473 0 01-.249-1.093 1.457 1.457 0 011.703-1.172l2.898.516c.381.064.721.278.945.594.224.316.313.71.249 1.093a1.471 1.471 0 01-.611.94c-.32.22-.712.303-1.092.231zm10.617 8.99l-21.728-3.868a1.454 1.454 0 01-.945-.594 1.472 1.472 0 01-.249-1.093c.072-.382.292-.72.611-.94.32-.22.712-.303 1.092-.231l21.728 3.868c.381.064.721.277.945.594.224.316.313.71.248 1.093-.071.382-.291.72-.61.94-.32.22-.712.303-1.092.231zm-30.82 8.707l-20.279-3.611a1.45 1.45 0 01-.945-.594 1.471 1.471 0 01-.249-1.093c.072-.382.292-.72.611-.94.319-.22.712-.303 1.092-.231l20.279 3.611c.381.063.721.277.945.593.224.317.314.71.249 1.094a1.47 1.47 0 01-.611.94 1.452 1.452 0 01-1.092.231zm-27.374-19.07l-1.448-.258a1.45 1.45 0 01-.945-.594 1.471 1.471 0 01-.249-1.093c.072-.382.292-.72.611-.94.319-.22.712-.303 1.092-.231l1.448.258c.382.063.722.277.946.593.224.317.314.71.249 1.094a1.464 1.464 0 01-1.704 1.171z" fill="#76E2FF"/><path d="M439.968 137.669l-13.036-2.321a1.45 1.45 0 01-.946-.594 1.47 1.47 0 01-.248-1.093c.071-.382.291-.72.61-.94a1.45 1.45 0 011.092-.231l13.037 2.321c.381.064.721.277.945.594.224.316.314.709.249 1.093a1.47 1.47 0 01-.611.94c-.319.22-.712.303-1.092.231z" fill="url(#9kibjrj9tbH)"/><path d="M448.657 139.217l-2.897-.516a1.452 1.452 0 01-.945-.594 1.469 1.469 0 01-.249-1.093 1.465 1.465 0 011.703-1.172l2.897.516c.381.064.721.278.945.594.224.317.314.71.249 1.093a1.467 1.467 0 01-.611.94c-.319.22-.712.303-1.092.232z" fill="#76E2FF"/><path d="M474.73 143.859l-20.279-3.611a1.45 1.45 0 01-.945-.594 1.472 1.472 0 01-.249-1.093c.072-.382.292-.72.611-.94.319-.22.712-.303 1.092-.231l20.279 3.61c.381.064.721.278.945.594.224.317.314.71.249 1.093a1.467 1.467 0 01-.611.94c-.319.22-.712.303-1.092.232z" fill="url(#8bxp805uubI)"/><path d="M457.187 133.771l-18.831-3.353a1.454 1.454 0 01-.945-.594 1.467 1.467 0 01-.248-1.093c.071-.382.291-.721.61-.94.32-.22.712-.303 1.092-.231l18.831 3.352c.381.064.721.278.945.594.224.317.314.71.249 1.093a1.467 1.467 0 01-.611.94c-.319.22-.712.303-1.092.232zm20.068 17.634l-14.485-2.579a1.45 1.45 0 01-.945-.594 1.466 1.466 0 01-.248-1.093c.071-.382.291-.72.61-.94a1.45 1.45 0 011.092-.231l14.485 2.579c.381.064.721.277.945.594.224.316.314.709.249 1.093a1.47 1.47 0 01-.611.94c-.319.22-.712.303-1.092.231zm-7.871 5.698l-11.588-2.063a1.45 1.45 0 01-.945-.594 1.468 1.468 0 01-.249-1.093 1.47 1.47 0 01.611-.94c.319-.22.712-.303 1.092-.231l11.588 2.063c.381.064.721.277.945.594.224.316.314.709.249 1.093a1.47 1.47 0 01-.611.94c-.319.22-.712.303-1.092.231z" fill="#76E2FF"/><path d="M452.003 154.008l-20.279-3.61a1.454 1.454 0 01-.946-.594 1.472 1.472 0 01-.248-1.093c.071-.382.291-.721.61-.94.32-.22.713-.303 1.092-.232l20.28 3.611c.381.064.721.277.945.594.224.316.313.71.249 1.093-.072.382-.292.72-.611.94-.32.22-.712.303-1.092.231z" fill="url(#y9fcn6xx7bJ)"/><path d="M425.929 149.366l-1.449-.258a1.447 1.447 0 01-.945-.594 1.466 1.466 0 01-.248-1.093c.071-.382.291-.72.61-.94.32-.219.712-.303 1.092-.231l1.448.258c.382.063.722.277.946.593.225.317.314.71.25 1.094a1.47 1.47 0 01-.612.941 1.453 1.453 0 01-1.092.23zm1.214-6.816l-1.448-.258a1.45 1.45 0 01-.945-.594 1.471 1.471 0 01-.249-1.093c.072-.382.292-.72.611-.94.32-.22.712-.303 1.092-.231l1.448.258c.382.063.722.277.946.593.224.317.314.71.249 1.094a1.464 1.464 0 01-1.704 1.171zm9.151 15.758l-13.037-2.321a1.447 1.447 0 01-.945-.594 1.467 1.467 0 01-.249-1.093 1.47 1.47 0 01.611-.94c.319-.22.712-.303 1.092-.231l13.036 2.321c.382.064.722.278.945.594.224.316.314.71.249 1.093a1.464 1.464 0 01-1.702 1.171zm8.689 1.548l-2.898-.516a1.454 1.454 0 01-.945-.594 1.468 1.468 0 01-.249-1.093c.072-.382.291-.721.611-.94.319-.22.712-.303 1.092-.232l2.898.516c.381.064.721.278.945.594.223.317.313.71.248 1.093a1.459 1.459 0 01-1.702 1.172zm38.701-.14l-2.898-.516a1.454 1.454 0 01-.945-.594 1.472 1.472 0 01-.249-1.093c.072-.382.292-.72.611-.94.319-.22.712-.303 1.092-.231l2.898.516c.381.063.721.277.945.593.224.317.313.71.249 1.094-.072.382-.292.72-.611.94-.32.219-.712.303-1.092.231zm-11.179 5.04l-21.728-3.869a1.45 1.45 0 01-.945-.594 1.471 1.471 0 01-.249-1.093c.072-.382.292-.72.611-.94.32-.22.712-.303 1.092-.231l21.728 3.868c.381.064.721.278.945.594.224.317.313.71.248 1.093a1.466 1.466 0 01-.61.94c-.32.22-.712.303-1.092.232zm-31.644 1.465l-18.831-3.353a1.45 1.45 0 01-.945-.593 1.475 1.475 0 01-.249-1.094c.072-.382.292-.72.611-.94a1.452 1.452 0 011.092-.231l18.831 3.353c.381.064.721.277.945.594.224.316.314.709.249 1.093a1.47 1.47 0 01-.611.94c-.319.22-.712.303-1.092.231zm20.28 3.611l-14.485-2.579a1.454 1.454 0 01-.945-.594 1.473 1.473 0 01-.249-1.093c.072-.383.292-.721.611-.94.319-.22.712-.303 1.092-.232l14.485 2.579c.381.064.721.278.945.594.224.317.313.71.249 1.093a1.471 1.471 0 01-.611.94c-.319.22-.712.303-1.092.232zm15.933 2.836l-10.135-1.804a1.452 1.452 0 01-.949-.593 1.468 1.468 0 01-.25-1.095c.071-.382.291-.72.61-.94a1.45 1.45 0 011.092-.231l10.135 1.804c.383.063.724.276.949.593.225.316.315.711.25 1.095-.071.382-.291.72-.61.94-.32.22-.712.303-1.092.231zm-.122 7.073l-5.794-1.031a1.454 1.454 0 01-.945-.594 1.473 1.473 0 01-.249-1.093 1.457 1.457 0 011.703-1.172l5.794 1.032c.381.064.721.277.945.594.224.316.314.709.249 1.093a1.47 1.47 0 01-.611.94c-.319.22-.712.303-1.092.231z" fill="#76E2FF"/><path d="M448.328 174.645l-20.279-3.611a1.45 1.45 0 01-.945-.594 1.467 1.467 0 01-.249-1.093 1.47 1.47 0 01.611-.94c.319-.22.712-.303 1.092-.231l20.279 3.61c.381.064.721.278.945.594.224.317.313.71.249 1.093a1.457 1.457 0 01-1.703 1.172z" fill="url(#iesyp53z6bK)"/><path d="M422.255 170.003l-1.448-.258a1.454 1.454 0 01-.946-.594 1.473 1.473 0 01-.248-1.093 1.464 1.464 0 011.702-1.172l1.449.258c.381.064.721.277.946.594.224.316.313.71.249 1.093a1.47 1.47 0 01-.612.941c-.319.22-.712.303-1.092.231z" fill="#76E2FF"/><path d="M432.618 178.947l-13.037-2.321a1.454 1.454 0 01-.945-.594 1.469 1.469 0 01-.249-1.093c.072-.382.292-.721.611-.94.319-.22.712-.303 1.092-.232l13.037 2.321c.381.064.721.278.945.594.224.317.313.71.248 1.094-.071.382-.291.72-.61.94-.32.219-.713.303-1.092.231z" fill="url(#wbjpwncj3bL)"/><path d="M441.309 180.494l-2.898-.516a1.45 1.45 0 01-.945-.594 1.471 1.471 0 01-.249-1.093c.072-.382.292-.72.611-.94.319-.22.712-.303 1.092-.231l2.898.516c.381.064.721.277.945.594.224.316.313.709.249 1.093-.072.382-.292.72-.611.94-.32.22-.712.303-1.092.231zm13.633 2.427l-2.898-.516a1.45 1.45 0 01-.945-.593 1.47 1.47 0 01-.249-1.094 1.47 1.47 0 01.611-.94 1.452 1.452 0 011.092-.231l2.898.516c.381.064.721.277.945.594.223.316.313.71.248 1.093-.071.382-.291.72-.61.94a1.45 1.45 0 01-1.092.231zm19.341 3.444l-10.135-1.804a1.452 1.452 0 01-.949-.593 1.469 1.469 0 01-.25-1.095 1.459 1.459 0 011.702-1.172l10.135 1.805c.383.062.724.275.949.592.225.317.315.711.25 1.096-.071.382-.291.72-.61.94-.32.219-.712.303-1.092.231z" fill="#76E2FF"/><path d="M458.884 176.589l-1.449-.257a1.454 1.454 0 01-.945-.594 1.468 1.468 0 01-.248-1.093 1.459 1.459 0 011.702-1.172l1.449.258c.381.064.721.277.946.594.224.316.313.71.249 1.093a1.47 1.47 0 01-.612.941c-.319.22-.712.303-1.092.23z" fill="url(#yc86qrpwebM)"/></g></g><defs><radialGradient id="7sukrkwrgg" cx="0" cy="0" r="1" gradientUnits="userSpaceOnUse" gradientTransform="matrix(48.4849 101.28196 -296.51551 141.94555 153.025 100.331)"><stop stop-color="#1F8DC1"/><stop offset="1" stop-color="#2E4469"/><stop offset="1" stop-color="#080D15"/><stop offset="1" stop-color="#18354C"/></radialGradient><radialGradient id="n1j2tvxboi" cx="0" cy="0" r="1" gradientUnits="userSpaceOnUse" gradientTransform="matrix(19.7642 105.09166 -78.5698 14.77634 156.563 200.094)"><stop stop-color="#1C5273"/><stop offset="1" stop-color="#0D141F"/></radialGradient><radialGradient id="yrwy3c5vlj" cx="0" cy="0" r="1" gradientUnits="userSpaceOnUse" gradientTransform="matrix(-15.3196 146.55348 -284.85193 -29.7763 228.939 165.273)"><stop stop-color="#1F5474"/><stop offset="1" stop-color="#2E4469"/><stop offset="1" stop-color="#080D15"/><stop offset="1" stop-color="#18354D"/></radialGradient><radialGradient id="4yr3zcsbxk" cx="0" cy="0" r="1" gradientUnits="userSpaceOnUse" gradientTransform="rotate(65.503 -44.72 223.338) scale(106.751 175.757)"><stop stop-color="#00C3FF"/><stop offset="1" stop-color="#040C10"/></radialGradient><radialGradient id="h46btfa19l" cx="0" cy="0" r="1" gradientUnits="userSpaceOnUse" gradientTransform="matrix(-10.76448 95.03903 -268.96327 -30.4638 196.042 211.739)"><stop stop-color="#386E9A"/><stop offset=".601" stop-color="#0E1E29"/><stop offset="1"/></radialGradient><radialGradient id="wv3j57rbxn" cx="0" cy="0" r="1" gradientUnits="userSpaceOnUse" gradientTransform="matrix(18.00575 3.20576 -.35465 1.99194 199.423 261.762)"><stop stop-color="#21C8F6"/><stop offset="1" stop-color="#4BDEFF"/></radialGradient><radialGradient id="4a73wd8mmo" cx="0" cy="0" r="1" gradientUnits="userSpaceOnUse" gradientTransform="matrix(24.68275 4.39453 -.35465 1.99194 203.087 269.469)"><stop stop-color="#21C8F6"/><stop offset="1" stop-color="#4BDEFF"/></radialGradient><radialGradient id="7u0jkvh4rp" cx="0" cy="0" r="1" gradientUnits="userSpaceOnUse" gradientTransform="matrix(7.78045 1.3852 -.35464 1.99194 189.63 273.426)"><stop stop-color="#21C8F6"/><stop offset="1" stop-color="#4BDEFF"/></radialGradient><radialGradient id="mq58ev2djq" cx="0" cy="0" r="1" gradientUnits="userSpaceOnUse" gradientTransform="matrix(7.78045 1.3852 -.35464 1.99194 204.257 276.03)"><stop stop-color="#21C8F6"/><stop offset="1" stop-color="#4BDEFF"/></radialGradient><radialGradient id="1s61be3pir" cx="0" cy="0" r="1" gradientUnits="userSpaceOnUse" gradientTransform="matrix(7.78045 1.38524 -.35465 1.99194 218.886 278.64)"><stop stop-color="#21C8F6"/><stop offset="1" stop-color="#4BDEFF"/></radialGradient><radialGradient id="kr2mgspurs" cx="0" cy="0" r="1" gradientUnits="userSpaceOnUse" gradientTransform="matrix(7.78045 1.3852 -.35464 1.99194 233.505 281.237)"><stop stop-color="#21C8F6"/><stop offset="1" stop-color="#4BDEFF"/></radialGradient><radialGradient id="1zh5e4m0gt" cx="0" cy="0" r="1" gradientUnits="userSpaceOnUse" gradientTransform="matrix(11.11491 1.9789 -.35465 1.99194 250.571 284.281)"><stop stop-color="#21C8F6"/><stop offset="1" stop-color="#4BDEFF"/></radialGradient><radialGradient id="5jjj0tnu6u" cx="0" cy="0" r="1" gradientUnits="userSpaceOnUse" gradientTransform="matrix(51.01585 9.0829 -.36332 2.04064 219.094 289.716)"><stop stop-color="#21C8F6"/><stop offset="1" stop-color="#4BDEFF"/></radialGradient><radialGradient id="ck2lp06fqv" cx="0" cy="0" r="1" gradientUnits="userSpaceOnUse" gradientTransform="matrix(22.447 3.99648 -.36332 2.04064 198.21 285.998)"><stop stop-color="#21C8F6"/><stop offset="1" stop-color="#4BDEFF"/></radialGradient><radialGradient id="tfzcxy5ybw" cx="0" cy="0" r="1" gradientUnits="userSpaceOnUse" gradientTransform="matrix(5.28916 .94169 -.35465 1.99194 218.482 265.156)"><stop stop-color="#21C8F6"/><stop offset="1" stop-color="#4BDEFF"/></radialGradient><radialGradient id="2ncxb5vi0x" cx="0" cy="0" r="1" gradientUnits="userSpaceOnUse" gradientTransform="matrix(5.28917 .94167 -.35464 1.99194 228.79 266.985)"><stop stop-color="#21C8F6"/><stop offset="1" stop-color="#4BDEFF"/></radialGradient><radialGradient id="l44m61j35y" cx="0" cy="0" r="1" gradientUnits="userSpaceOnUse" gradientTransform="rotate(10.095 -1438.48 1449.672) scale(11.2897 2.02326)"><stop stop-color="#21C8F6"/><stop offset="1" stop-color="#4BDEFF"/></radialGradient><radialGradient id="qfeyk6c9ez" cx="0" cy="0" r="1" gradientUnits="userSpaceOnUse" gradientTransform="matrix(12.34142 2.19728 -.35465 1.99194 251 277.652)"><stop stop-color="#21C8F6"/><stop offset="1" stop-color="#4BDEFF"/></radialGradient><radialGradient id="z0msvbc8bA" cx="0" cy="0" r="1" gradientUnits="userSpaceOnUse" gradientTransform="matrix(17.63055 3.13896 -.35465 1.99194 247.898 270.393)"><stop stop-color="#21C8F6"/><stop offset="1" stop-color="#4BDEFF"/></radialGradient><radialGradient id="n8dn51gkjB" cx="0" cy="0" r="1" gradientUnits="userSpaceOnUse" gradientTransform="matrix(78.91595 14.04997 -5.87166 32.98 221.247 274.762)"><stop stop-color="#21C8F6"/><stop offset="1" stop-color="#4BDEFF"/></radialGradient><radialGradient id="fwk2qsoaeD" cx="0" cy="0" r="1" gradientUnits="userSpaceOnUse" gradientTransform="matrix(394.5944 45.64824 -13.61796 117.71693 149.406 222.053)"><stop stop-color="#00BAFF" stop-opacity=".231"/><stop offset="1" stop-color="#3F9FD5" stop-opacity=".01"/></radialGradient><radialGradient id="doa2x1r9kE" cx="0" cy="0" r="1" gradientUnits="userSpaceOnUse" gradientTransform="rotate(-164.16 104.936 100.672) scale(77.1658 5.99178)"><stop stop-color="#AEF3FF"/><stop offset="1" stop-color="#76E2FF" stop-opacity=".01"/></radialGradient><radialGradient id="n36bhrmhpF" cx="0" cy="0" r="1" gradientUnits="userSpaceOnUse" gradientTransform="matrix(80.8214 0 0 11.5459 233.853 218.768)"><stop/><stop offset="1" stop-opacity=".01"/></radialGradient><radialGradient id="1gw8ncig1J" cx="0" cy="0" r="1" gradientUnits="userSpaceOnUse" gradientTransform="matrix(96.7388 104.94503 -82.67739 76.21238 192.114 138.71)"><stop stop-color="#00BAFF" stop-opacity=".6"/><stop offset="1" stop-color="#3F9FD5" stop-opacity=".01"/></radialGradient><radialGradient id="61l84uq2tN" cx="0" cy="0" r="1" gradientUnits="userSpaceOnUse" gradientTransform="translate(242.895 166.449) scale(30.746)"><stop stop-color="#257EDD"/><stop offset="1" stop-color="#267EDC" stop-opacity=".01"/></radialGradient><radialGradient id="zbb1n0tu2P" cx="0" cy="0" r="1" gradientUnits="userSpaceOnUse" gradientTransform="translate(241.215 167.626) scale(11.9005)"><stop stop-color="#21C8F6"/><stop offset="1" stop-color="#4BDEFF"/></radialGradient><radialGradient id="ss0e8usgaaa" cx="0" cy="0" r="1" gradientUnits="userSpaceOnUse" gradientTransform="matrix(48.4849 101.28196 -296.51551 141.94555 224.648 97.576)"><stop stop-color="#1F8DC1"/><stop offset="1" stop-color="#2E4469"/><stop offset="1" stop-color="#080D15"/><stop offset="1" stop-color="#18354C"/></radialGradient><radialGradient id="hd4yf6b5mac" cx="0" cy="0" r="1" gradientUnits="userSpaceOnUse" gradientTransform="matrix(19.7642 105.09166 -78.5698 14.77634 228.186 197.34)"><stop stop-color="#1C5273"/><stop offset="1" stop-color="#0D141F"/></radialGradient><radialGradient id="9gms25qspad" cx="0" cy="0" r="1" gradientUnits="userSpaceOnUse" gradientTransform="matrix(-15.3196 146.55348 -284.85193 -29.7763 300.562 162.518)"><stop stop-color="#1F5474"/><stop offset="1" stop-color="#2E4469"/><stop offset="1" stop-color="#080D15"/><stop offset="1" stop-color="#18354D"/></radialGradient><radialGradient id="3r48qde6hae" cx="0" cy="0" r="1" gradientUnits="userSpaceOnUse" gradientTransform="rotate(65.503 -6.766 277.632) scale(106.751 175.757)"><stop stop-color="#00C3FF"/><stop offset="1" stop-color="#040C10"/></radialGradient><radialGradient id="2n0wykctkaf" cx="0" cy="0" r="1" gradientUnits="userSpaceOnUse" gradientTransform="matrix(-10.76448 95.03903 -268.96327 -30.4638 267.665 208.985)"><stop stop-color="#386E9A"/><stop offset=".601" stop-color="#0E1E29"/><stop offset="1"/></radialGradient><radialGradient id="tneltojqvah" cx="0" cy="0" r="1" gradientUnits="userSpaceOnUse" gradientTransform="matrix(18.00575 3.20576 -.35465 1.99194 271.046 259.008)"><stop stop-color="#21C8F6"/><stop offset="1" stop-color="#4BDEFF"/></radialGradient><radialGradient id="od93l5oaaai" cx="0" cy="0" r="1" gradientUnits="userSpaceOnUse" gradientTransform="matrix(24.68275 4.39453 -.35465 1.99194 274.71 266.714)"><stop stop-color="#21C8F6"/><stop offset="1" stop-color="#4BDEFF"/></radialGradient><radialGradient id="r5rtdxn2caj" cx="0" cy="0" r="1" gradientUnits="userSpaceOnUse" gradientTransform="matrix(7.78045 1.3852 -.35464 1.99194 261.252 270.671)"><stop stop-color="#21C8F6"/><stop offset="1" stop-color="#4BDEFF"/></radialGradient><radialGradient id="4svkk6803ak" cx="0" cy="0" r="1" gradientUnits="userSpaceOnUse" gradientTransform="matrix(7.78045 1.3852 -.35464 1.99194 275.878 273.275)"><stop stop-color="#21C8F6"/><stop offset="1" stop-color="#4BDEFF"/></radialGradient><radialGradient id="mzgyse2s6al" cx="0" cy="0" r="1" gradientUnits="userSpaceOnUse" gradientTransform="matrix(7.78045 1.3852 -.35464 1.99194 290.504 275.879)"><stop stop-color="#21C8F6"/><stop offset="1" stop-color="#4BDEFF"/></radialGradient><radialGradient id="6kj3vq0uzam" cx="0" cy="0" r="1" gradientUnits="userSpaceOnUse" gradientTransform="matrix(7.78045 1.3852 -.35464 1.99194 305.126 278.483)"><stop stop-color="#21C8F6"/><stop offset="1" stop-color="#4BDEFF"/></radialGradient><radialGradient id="gyv6b85x7an" cx="0" cy="0" r="1" gradientUnits="userSpaceOnUse" gradientTransform="matrix(11.11491 1.9789 -.35465 1.99194 322.194 281.526)"><stop stop-color="#21C8F6"/><stop offset="1" stop-color="#4BDEFF"/></radialGradient><radialGradient id="4c1ykdm3xao" cx="0" cy="0" r="1" gradientUnits="userSpaceOnUse" gradientTransform="matrix(51.01585 9.0829 -.36332 2.04064 290.717 286.961)"><stop stop-color="#21C8F6"/><stop offset="1" stop-color="#4BDEFF"/></radialGradient><radialGradient id="6rk8hlxfcap" cx="0" cy="0" r="1" gradientUnits="userSpaceOnUse" gradientTransform="matrix(22.447 3.99648 -.36332 2.04064 269.833 283.243)"><stop stop-color="#21C8F6"/><stop offset="1" stop-color="#4BDEFF"/></radialGradient><radialGradient id="hbnbvd4y4aq" cx="0" cy="0" r="1" gradientUnits="userSpaceOnUse" gradientTransform="matrix(5.28916 .94169 -.35465 1.99194 290.104 262.401)"><stop stop-color="#21C8F6"/><stop offset="1" stop-color="#4BDEFF"/></radialGradient><radialGradient id="uybrczx9ear" cx="0" cy="0" r="1" gradientUnits="userSpaceOnUse" gradientTransform="matrix(5.28917 .94167 -.35464 1.99194 300.412 264.231)"><stop stop-color="#21C8F6"/><stop offset="1" stop-color="#4BDEFF"/></radialGradient><radialGradient id="0mdwnepnzas" cx="0" cy="0" r="1" gradientUnits="userSpaceOnUse" gradientTransform="matrix(11.11491 1.9789 -.35465 1.99194 303.457 271.832)"><stop stop-color="#21C8F6"/><stop offset="1" stop-color="#4BDEFF"/></radialGradient><radialGradient id="b1bgadrrnat" cx="0" cy="0" r="1" gradientUnits="userSpaceOnUse" gradientTransform="matrix(12.34143 2.19723 -.35464 1.99194 322.617 274.89)"><stop stop-color="#21C8F6"/><stop offset="1" stop-color="#4BDEFF"/></radialGradient><radialGradient id="32z6hrnktau" cx="0" cy="0" r="1" gradientUnits="userSpaceOnUse" gradientTransform="matrix(17.63055 3.13896 -.35465 1.99194 319.521 267.638)"><stop stop-color="#21C8F6"/><stop offset="1" stop-color="#4BDEFF"/></radialGradient><radialGradient id="thrbplt8wav" cx="0" cy="0" r="1" gradientUnits="userSpaceOnUse" gradientTransform="matrix(78.91595 14.04997 -5.87166 32.98 292.869 272.007)"><stop stop-color="#21C8F6"/><stop offset="1" stop-color="#4BDEFF"/></radialGradient><radialGradient id="hku2lfilbax" cx="0" cy="0" r="1" gradientUnits="userSpaceOnUse" gradientTransform="matrix(394.5944 45.64824 -13.61796 117.71693 221.029 219.299)"><stop stop-color="#00BAFF" stop-opacity=".231"/><stop offset="1" stop-color="#3F9FD5" stop-opacity=".01"/></radialGradient><radialGradient id="zf2plc9fday" cx="0" cy="0" r="1" gradientUnits="userSpaceOnUse" gradientTransform="rotate(-164.16 140.556 94.313) scale(77.1658 5.99178)"><stop stop-color="#AEF3FF"/><stop offset="1" stop-color="#76E2FF" stop-opacity=".01"/></radialGradient><radialGradient id="tyu187op5az" cx="0" cy="0" r="1" gradientUnits="userSpaceOnUse" gradientTransform="matrix(80.8214 0 0 11.5459 305.477 216.013)"><stop/><stop offset="1" stop-opacity=".01"/></radialGradient><radialGradient id="1vhkv6bm0aD" cx="0" cy="0" r="1" gradientUnits="userSpaceOnUse" gradientTransform="matrix(96.7388 104.94503 -82.67739 76.21238 263.739 135.953)"><stop stop-color="#00BAFF" stop-opacity=".6"/><stop offset="1" stop-color="#3F9FD5" stop-opacity=".01"/></radialGradient><radialGradient id="j417zd28kaH" cx="0" cy="0" r="1" gradientUnits="userSpaceOnUse" gradientTransform="translate(314.517 163.694) scale(30.746)"><stop stop-color="#257EDD"/><stop offset="1" stop-color="#267EDC" stop-opacity=".01"/></radialGradient><radialGradient id="g0unk9b1laJ" cx="0" cy="0" r="1" gradientUnits="userSpaceOnUse" gradientTransform="translate(312.834 164.872) scale(11.9005)"><stop stop-color="#21C8F6"/><stop offset="1" stop-color="#4BDEFF"/></radialGradient><radialGradient id="7pgb1ojoiaU" cx="0" cy="0" r="1" gradientUnits="userSpaceOnUse" gradientTransform="matrix(48.4849 101.28196 -296.51551 141.94555 297.518 97.176)"><stop stop-color="#1F8DC1"/><stop offset="1" stop-color="#2E4469"/><stop offset="1" stop-color="#080D15"/><stop offset="1" stop-color="#18354C"/></radialGradient><radialGradient id="asnwmiijsaW" cx="0" cy="0" r="1" gradientUnits="userSpaceOnUse" gradientTransform="matrix(19.7642 105.09166 -78.5698 14.77634 301.056 196.938)"><stop stop-color="#1C5273"/><stop offset="1" stop-color="#0D141F"/></radialGradient><radialGradient id="jrbllxvl1aX" cx="0" cy="0" r="1" gradientUnits="userSpaceOnUse" gradientTransform="matrix(-15.3196 146.55348 -284.85193 -29.7763 373.432 162.117)"><stop stop-color="#1F5474"/><stop offset="1" stop-color="#2E4469"/><stop offset="1" stop-color="#080D15"/><stop offset="1" stop-color="#18354D"/></radialGradient><radialGradient id="302uy69nhaY" cx="0" cy="0" r="1" gradientUnits="userSpaceOnUse" gradientTransform="rotate(65.503 29.98 334.075) scale(106.751 175.757)"><stop stop-color="#00C3FF"/><stop offset="1" stop-color="#040C10"/></radialGradient><radialGradient id="4x928mur2aZ" cx="0" cy="0" r="1" gradientUnits="userSpaceOnUse" gradientTransform="matrix(-10.76448 95.03903 -268.96327 -30.4638 340.535 208.584)"><stop stop-color="#386E9A"/><stop offset=".601" stop-color="#0E1E29"/><stop offset="1"/></radialGradient><radialGradient id="hh9tpfo4zbb" cx="0" cy="0" r="1" gradientUnits="userSpaceOnUse" gradientTransform="matrix(18.00575 3.20576 -.35465 1.99194 343.917 258.607)"><stop stop-color="#21C8F6"/><stop offset="1" stop-color="#4BDEFF"/></radialGradient><radialGradient id="754k54nq3bc" cx="0" cy="0" r="1" gradientUnits="userSpaceOnUse" gradientTransform="matrix(24.68275 4.39453 -.35465 1.99194 347.581 266.314)"><stop stop-color="#21C8F6"/><stop offset="1" stop-color="#4BDEFF"/></radialGradient><radialGradient id="toc0jbpxsbd" cx="0" cy="0" r="1" gradientUnits="userSpaceOnUse" gradientTransform="matrix(7.78045 1.3852 -.35464 1.99194 334.12 270.271)"><stop stop-color="#21C8F6"/><stop offset="1" stop-color="#4BDEFF"/></radialGradient><radialGradient id="l28zn8z18be" cx="0" cy="0" r="1" gradientUnits="userSpaceOnUse" gradientTransform="matrix(7.78045 1.3852 -.35464 1.99194 348.747 272.875)"><stop stop-color="#21C8F6"/><stop offset="1" stop-color="#4BDEFF"/></radialGradient><radialGradient id="l5izb4ht1bf" cx="0" cy="0" r="1" gradientUnits="userSpaceOnUse" gradientTransform="matrix(7.78045 1.38524 -.35465 1.99194 363.38 275.485)"><stop stop-color="#21C8F6"/><stop offset="1" stop-color="#4BDEFF"/></radialGradient><radialGradient id="b4w79babybg" cx="0" cy="0" r="1" gradientUnits="userSpaceOnUse" gradientTransform="matrix(7.78045 1.3852 -.35464 1.99194 377.995 278.082)"><stop stop-color="#21C8F6"/><stop offset="1" stop-color="#4BDEFF"/></radialGradient><radialGradient id="diy84ue01bh" cx="0" cy="0" r="1" gradientUnits="userSpaceOnUse" gradientTransform="matrix(11.11491 1.9789 -.35465 1.99194 395.064 281.126)"><stop stop-color="#21C8F6"/><stop offset="1" stop-color="#4BDEFF"/></radialGradient><radialGradient id="6re4liwb6bi" cx="0" cy="0" r="1" gradientUnits="userSpaceOnUse" gradientTransform="matrix(51.01585 9.0829 -.36332 2.04064 363.587 286.561)"><stop stop-color="#21C8F6"/><stop offset="1" stop-color="#4BDEFF"/></radialGradient><radialGradient id="10r2sfr24bj" cx="0" cy="0" r="1" gradientUnits="userSpaceOnUse" gradientTransform="matrix(22.447 3.99648 -.36332 2.04064 342.704 282.842)"><stop stop-color="#21C8F6"/><stop offset="1" stop-color="#4BDEFF"/></radialGradient><radialGradient id="w96yb9rtbbk" cx="0" cy="0" r="1" gradientUnits="userSpaceOnUse" gradientTransform="matrix(5.28916 .94169 -.35465 1.99194 362.975 262)"><stop stop-color="#21C8F6"/><stop offset="1" stop-color="#4BDEFF"/></radialGradient><radialGradient id="guotxkqy3bl" cx="0" cy="0" r="1" gradientUnits="userSpaceOnUse" gradientTransform="matrix(5.28916 .94169 -.35465 1.99194 373.287 263.836)"><stop stop-color="#21C8F6"/><stop offset="1" stop-color="#4BDEFF"/></radialGradient><radialGradient id="0lkbft1fgbm" cx="0" cy="0" r="1" gradientUnits="userSpaceOnUse" gradientTransform="matrix(11.11491 1.9789 -.35465 1.99194 376.328 271.432)"><stop stop-color="#21C8F6"/><stop offset="1" stop-color="#4BDEFF"/></radialGradient><radialGradient id="nl89ibamibn" cx="0" cy="0" r="1" gradientUnits="userSpaceOnUse" gradientTransform="matrix(12.34143 2.19723 -.35464 1.99194 395.486 274.491)"><stop stop-color="#21C8F6"/><stop offset="1" stop-color="#4BDEFF"/></radialGradient><radialGradient id="0nj9xle4dbo" cx="0" cy="0" r="1" gradientUnits="userSpaceOnUse" gradientTransform="matrix(17.63055 3.13896 -.35465 1.99194 392.391 267.238)"><stop stop-color="#21C8F6"/><stop offset="1" stop-color="#4BDEFF"/></radialGradient><radialGradient id="hke7rit6ibp" cx="0" cy="0" r="1" gradientUnits="userSpaceOnUse" gradientTransform="matrix(78.91595 14.04997 -5.87166 32.98 365.736 271.607)"><stop stop-color="#21C8F6"/><stop offset="1" stop-color="#4BDEFF"/></radialGradient><radialGradient id="am85s1b88br" cx="0" cy="0" r="1" gradientUnits="userSpaceOnUse" gradientTransform="matrix(394.5944 45.64824 -13.61796 117.71693 293.899 218.898)"><stop stop-color="#00BAFF" stop-opacity=".231"/><stop offset="1" stop-color="#3F9FD5" stop-opacity=".01"/></radialGradient><radialGradient id="7uiw73s4zbs" cx="0" cy="0" r="1" gradientUnits="userSpaceOnUse" gradientTransform="rotate(-164.16 176.963 89.044) scale(77.1658 5.99178)"><stop stop-color="#AEF3FF"/><stop offset="1" stop-color="#76E2FF" stop-opacity=".01"/></radialGradient><radialGradient id="n8vqv32phbt" cx="0" cy="0" r="1" gradientUnits="userSpaceOnUse" gradientTransform="matrix(80.8214 0 0 11.5459 378.347 215.612)"><stop/><stop offset="1" stop-opacity=".01"/></radialGradient><radialGradient id="6vb09wrfqbx" cx="0" cy="0" r="1" gradientUnits="userSpaceOnUse" gradientTransform="matrix(96.7388 104.94503 -82.67739 76.21238 336.609 135.553)"><stop stop-color="#00BAFF" stop-opacity=".6"/><stop offset="1" stop-color="#3F9FD5" stop-opacity=".01"/></radialGradient><radialGradient id="9hbuqkecubB" cx="0" cy="0" r="1" gradientUnits="userSpaceOnUse" gradientTransform="translate(387.385 163.294) scale(30.746)"><stop stop-color="#257EDD"/><stop offset="1" stop-color="#267EDC" stop-opacity=".01"/></radialGradient><radialGradient id="fmomh4hzibD" cx="0" cy="0" r="1" gradientUnits="userSpaceOnUse" gradientTransform="translate(385.705 164.471) scale(11.9005)"><stop stop-color="#21C8F6"/><stop offset="1" stop-color="#4BDEFF"/></radialGradient><linearGradient id="t5zo1dzmza" x1="474.307" y1="136.217" x2="202.35" y2="136.217" gradientUnits="userSpaceOnUse"><stop stop-color="#21C8F6"/><stop offset="1" stop-color="#21C8F6" stop-opacity="0"/></linearGradient><linearGradient id="m19h7q8s4b" x1="519.692" y1="162.534" x2="190.617" y2="162.534" gradientUnits="userSpaceOnUse"><stop stop-color="#21C8F6"/><stop offset="1" stop-color="#21C8F6" stop-opacity="0"/></linearGradient><linearGradient id="1eh41v0ajc" x1="280.511" y1="189.049" x2="129.745" y2="189.049" gradientUnits="userSpaceOnUse"><stop stop-color="#21C8F6"/><stop offset="1" stop-color="#21C8F6" stop-opacity="0"/></linearGradient><linearGradient id="tdmq82j4zd" x1="636.616" y1="259.099" x2="222.592" y2="259.099" gradientUnits="userSpaceOnUse"><stop stop-color="#21C8F6"/><stop offset="1" stop-color="#21C8F6" stop-opacity="0"/></linearGradient><linearGradient id="5qo9ouo9ye" x1="539.438" y1="285.416" x2="49.586" y2="283.746" gradientUnits="userSpaceOnUse"><stop stop-color="#21C8F6"/><stop offset="1" stop-color="#21C8F6" stop-opacity="0"/></linearGradient><linearGradient id="zn56zg857h" x1="78.783" y1="148.816" x2="157.571" y2="221.543" gradientUnits="userSpaceOnUse"><stop stop-color="#31D1FA"/><stop offset="1" stop-color="#2BCEF9" stop-opacity="0"/></linearGradient><linearGradient id="mnwjpxxfyC" x1="365.264" y1="237.637" x2="365.264" y2="180.581" gradientUnits="userSpaceOnUse"><stop stop-color="#5B79A2"/><stop offset="1" stop-color="#2E4469"/><stop offset="1" stop-color="#2E4469"/><stop offset="1" stop-color="#216286"/></linearGradient><linearGradient id="tz3hyjq5tG" x1="230.973" y1="220.972" x2="233.018" y2="209.487" gradientUnits="userSpaceOnUse"><stop stop-color="#5B79A2"/><stop offset="1" stop-color="#2E4469"/></linearGradient><linearGradient id="0j3fsvllmH" x1="233.151" y1="208.39" x2="228.944" y2="187.135" gradientUnits="userSpaceOnUse"><stop stop-color="#267195"/><stop offset="1" stop-color="#00C3FF"/></linearGradient><linearGradient id="o8g3djxwuI" x1="185.578" y1="140.96" x2="280.85" y2="219.211" gradientUnits="userSpaceOnUse"><stop stop-color="#5B79A2"/><stop offset="1" stop-color="#2E4469"/></linearGradient><linearGradient id="wwvo1550wK" x1="169.049" y1="103.823" x2="150.912" y2="205.692" gradientUnits="userSpaceOnUse"><stop stop-color="#36B9F9"/><stop offset="1"/></linearGradient><linearGradient id="sgy1x4iizM" x1="228.085" y1="162.031" x2="209.255" y2="144.044" gradientUnits="userSpaceOnUse"><stop stop-color="#21C8F6" stop-opacity=".299"/><stop offset="1" stop-color="#637BFF"/></linearGradient><linearGradient id="q4ufi676qQ" x1="280.145" y1="227.55" x2="344.071" y2="144.669" gradientUnits="userSpaceOnUse"><stop stop-color="#2FCFF9"/><stop offset="1" stop-color="#37D3FB" stop-opacity=".01"/></linearGradient><linearGradient id="ohsgjrhqxS" x1="-94.351" y1="35.349" x2="-117.743" y2="169.03" gradientUnits="userSpaceOnUse"><stop stop-color="#76E1FF"/><stop offset="1" stop-color="#76E1FF" stop-opacity=".01"/></linearGradient><linearGradient id="5h4q2en0yT" x1="-28.729" y1="64.685" x2="-48.288" y2="177.049" gradientUnits="userSpaceOnUse"><stop stop-color="#76E1FF"/><stop offset="1" stop-color="#76E1FF" stop-opacity=".01"/></linearGradient><linearGradient id="9dw6o0ymzU" x1="-647.585" y1="-65.787" x2="-689.57" y2="171.754" gradientUnits="userSpaceOnUse"><stop stop-color="#76E1FF"/><stop offset="1" stop-color="#76E1FF" stop-opacity=".01"/></linearGradient><linearGradient id="84hx848z6V" x1="-670.312" y1="-55.637" x2="-712.297" y2="181.903" gradientUnits="userSpaceOnUse"><stop stop-color="#76E1FF"/><stop offset="1" stop-color="#76E1FF" stop-opacity=".01"/></linearGradient><linearGradient id="wni0ksdneW" x1="-673.987" y1="-35.001" x2="-715.972" y2="202.54" gradientUnits="userSpaceOnUse"><stop stop-color="#76E1FF"/><stop offset="1" stop-color="#76E1FF" stop-opacity=".01"/></linearGradient><linearGradient id="dl1q6zd5uX" x1="-36.079" y1="105.963" x2="-55.638" y2="218.327" gradientUnits="userSpaceOnUse"><stop stop-color="#76E1FF"/><stop offset="1" stop-color="#76E1FF" stop-opacity=".01"/></linearGradient><linearGradient id="cpl81b1l0Y" x1="305.398" y1="176.558" x2="305.501" y2="185.585" gradientUnits="userSpaceOnUse"><stop stop-color="#76E1FF"/><stop offset="1" stop-color="#76E1FF" stop-opacity=".01"/></linearGradient><linearGradient id="incloelm0ab" x1="150.406" y1="146.061" x2="229.194" y2="218.789" gradientUnits="userSpaceOnUse"><stop stop-color="#31D1FA"/><stop offset="1" stop-color="#2BCEF9" stop-opacity="0"/></linearGradient><linearGradient id="e23npphigaw" x1="436.887" y1="234.882" x2="436.887" y2="177.827" gradientUnits="userSpaceOnUse"><stop stop-color="#5B79A2"/><stop offset="1" stop-color="#2E4469"/><stop offset="1" stop-color="#2E4469"/><stop offset="1" stop-color="#216286"/></linearGradient><linearGradient id="m787e6pz6aA" x1="302.598" y1="218.217" x2="304.643" y2="206.733" gradientUnits="userSpaceOnUse"><stop stop-color="#5B79A2"/><stop offset="1" stop-color="#2E4469"/></linearGradient><linearGradient id="1i0l0bkkgaB" x1="304.776" y1="205.635" x2="300.569" y2="184.38" gradientUnits="userSpaceOnUse"><stop stop-color="#267195"/><stop offset="1" stop-color="#00C3FF"/></linearGradient><linearGradient id="2oa28ke16aC" x1="257.203" y1="138.206" x2="352.475" y2="216.456" gradientUnits="userSpaceOnUse"><stop stop-color="#5B79A2"/><stop offset="1" stop-color="#2E4469"/></linearGradient><linearGradient id="mx5uplfy7aE" x1="240.674" y1="101.068" x2="222.537" y2="202.938" gradientUnits="userSpaceOnUse"><stop stop-color="#36B9F9"/><stop offset="1"/></linearGradient><linearGradient id="d3l80yjubaG" x1="299.71" y1="159.276" x2="280.88" y2="141.289" gradientUnits="userSpaceOnUse"><stop stop-color="#21C8F6" stop-opacity=".299"/><stop offset="1" stop-color="#637BFF"/></linearGradient><linearGradient id="ixt3zaryhaK" x1="351.765" y1="224.796" x2="415.692" y2="141.914" gradientUnits="userSpaceOnUse"><stop stop-color="#2FCFF9"/><stop offset="1" stop-color="#37D3FB" stop-opacity=".01"/></linearGradient><linearGradient id="z6rtuonflaM" x1="-22.731" y1="32.594" x2="-46.123" y2="166.275" gradientUnits="userSpaceOnUse"><stop stop-color="#76E1FF"/><stop offset="1" stop-color="#76E1FF" stop-opacity=".01"/></linearGradient><linearGradient id="e4qpho1meaN" x1="42.891" y1="61.93" x2="23.332" y2="174.295" gradientUnits="userSpaceOnUse"><stop stop-color="#76E1FF"/><stop offset="1" stop-color="#76E1FF" stop-opacity=".01"/></linearGradient><linearGradient id="xn0teczoaaO" x1="-575.965" y1="-68.541" x2="-617.95" y2="168.999" gradientUnits="userSpaceOnUse"><stop stop-color="#76E1FF"/><stop offset="1" stop-color="#76E1FF" stop-opacity=".01"/></linearGradient><linearGradient id="yql5ayyaiaP" x1="-598.692" y1="-58.392" x2="-640.677" y2="179.148" gradientUnits="userSpaceOnUse"><stop stop-color="#76E1FF"/><stop offset="1" stop-color="#76E1FF" stop-opacity=".01"/></linearGradient><linearGradient id="8xk99nsquaQ" x1="-602.367" y1="-37.755" x2="-644.352" y2="199.785" gradientUnits="userSpaceOnUse"><stop stop-color="#76E1FF"/><stop offset="1" stop-color="#76E1FF" stop-opacity=".01"/></linearGradient><linearGradient id="r9ansn95oaR" x1="35.541" y1="103.208" x2="15.982" y2="215.572" gradientUnits="userSpaceOnUse"><stop stop-color="#76E1FF"/><stop offset="1" stop-color="#76E1FF" stop-opacity=".01"/></linearGradient><linearGradient id="jygnhjuxpaS" x1="377.018" y1="173.804" x2="377.121" y2="182.83" gradientUnits="userSpaceOnUse"><stop stop-color="#76E1FF"/><stop offset="1" stop-color="#76E1FF" stop-opacity=".01"/></linearGradient><linearGradient id="zvz45384zaV" x1="223.275" y1="145.661" x2="302.063" y2="218.388" gradientUnits="userSpaceOnUse"><stop stop-color="#31D1FA"/><stop offset="1" stop-color="#2BCEF9" stop-opacity="0"/></linearGradient><linearGradient id="dp5dgx27cbq" x1="509.757" y1="234.482" x2="509.757" y2="177.426" gradientUnits="userSpaceOnUse"><stop stop-color="#5B79A2"/><stop offset="1" stop-color="#2E4469"/><stop offset="1" stop-color="#2E4469"/><stop offset="1" stop-color="#216286"/></linearGradient><linearGradient id="0y9rm02xobu" x1="375.467" y1="217.817" x2="377.512" y2="206.332" gradientUnits="userSpaceOnUse"><stop stop-color="#5B79A2"/><stop offset="1" stop-color="#2E4469"/></linearGradient><linearGradient id="upjoi5he8bv" x1="377.646" y1="205.235" x2="373.438" y2="183.979" gradientUnits="userSpaceOnUse"><stop stop-color="#267195"/><stop offset="1" stop-color="#00C3FF"/></linearGradient><linearGradient id="0cxzal2g0bw" x1="330.073" y1="137.805" x2="425.345" y2="216.056" gradientUnits="userSpaceOnUse"><stop stop-color="#5B79A2"/><stop offset="1" stop-color="#2E4469"/></linearGradient><linearGradient id="68rxl228oby" x1="313.544" y1="100.668" x2="295.407" y2="202.537" gradientUnits="userSpaceOnUse"><stop stop-color="#36B9F9"/><stop offset="1"/></linearGradient><linearGradient id="gvqf0s2y2bA" x1="372.582" y1="158.875" x2="353.752" y2="140.888" gradientUnits="userSpaceOnUse"><stop stop-color="#21C8F6" stop-opacity=".299"/><stop offset="1" stop-color="#637BFF"/></linearGradient><linearGradient id="zo4iwog68bE" x1="424.635" y1="224.395" x2="488.562" y2="141.514" gradientUnits="userSpaceOnUse"><stop stop-color="#2FCFF9"/><stop offset="1" stop-color="#37D3FB" stop-opacity=".01"/></linearGradient><linearGradient id="igvpyc1thbG" x1="50.138" y1="32.194" x2="26.746" y2="165.875" gradientUnits="userSpaceOnUse"><stop stop-color="#76E1FF"/><stop offset="1" stop-color="#76E1FF" stop-opacity=".01"/></linearGradient><linearGradient id="9kibjrj9tbH" x1="115.76" y1="61.53" x2="96.201" y2="173.894" gradientUnits="userSpaceOnUse"><stop stop-color="#76E1FF"/><stop offset="1" stop-color="#76E1FF" stop-opacity=".01"/></linearGradient><linearGradient id="8bxp805uubI" x1="-503.095" y1="-68.942" x2="-545.081" y2="168.598" gradientUnits="userSpaceOnUse"><stop stop-color="#76E1FF"/><stop offset="1" stop-color="#76E1FF" stop-opacity=".01"/></linearGradient><linearGradient id="y9fcn6xx7bJ" x1="-525.823" y1="-58.792" x2="-567.808" y2="178.748" gradientUnits="userSpaceOnUse"><stop stop-color="#76E1FF"/><stop offset="1" stop-color="#76E1FF" stop-opacity=".01"/></linearGradient><linearGradient id="iesyp53z6bK" x1="-529.498" y1="-38.156" x2="-571.483" y2="199.384" gradientUnits="userSpaceOnUse"><stop stop-color="#76E1FF"/><stop offset="1" stop-color="#76E1FF" stop-opacity=".01"/></linearGradient><linearGradient id="wbjpwncj3bL" x1="108.41" y1="102.807" x2="88.85" y2="215.172" gradientUnits="userSpaceOnUse"><stop stop-color="#76E1FF"/><stop offset="1" stop-color="#76E1FF" stop-opacity=".01"/></linearGradient><linearGradient id="yc86qrpwebM" x1="449.887" y1="173.403" x2="449.989" y2="182.43" gradientUnits="userSpaceOnUse"><stop stop-color="#76E1FF"/><stop offset="1" stop-color="#76E1FF" stop-opacity=".01"/></linearGradient><filter id="g2gve931im" x="176.827" y="253.247" width="88.933" height="49.31" filterUnits="userSpaceOnUse" color-interpolation-filters="sRGB"><feFlood flood-opacity="0" result="BackgroundImageFix"/><feColorMatrix in="SourceAlpha" values="0 0 0 0 0 0 0 0 0 0 0 0 0 0 0 0 0 0 127 0" result="hardAlpha"/><feOffset/><feGaussianBlur stdDeviation="2.476"/><feColorMatrix values="0 0 0 0 0.137255 0 0 0 0 0.788235 0 0 0 0 0.968627 0 0 0 0.604622 0"/><feBlend in2="BackgroundImageFix" result="effect1_dropShadow_5818_43085"/><feBlend in="SourceGraphic" in2="effect1_dropShadow_5818_43085" result="shape"/></filter><filter id="h6mhs5yb9O" x="220.915" y="147.327" width="40.599" height="40.599" filterUnits="userSpaceOnUse" color-interpolation-filters="sRGB"><feFlood flood-opacity="0" result="BackgroundImageFix"/><feColorMatrix in="SourceAlpha" values="0 0 0 0 0 0 0 0 0 0 0 0 0 0 0 0 0 0 127 0" result="hardAlpha"/><feOffset/><feGaussianBlur stdDeviation="5.799"/><feColorMatrix values="0 0 0 0 0.180392 0 0 0 0 0.811765 0 0 0 0 0.976471 0 0 0 1 0"/><feBlend in2="BackgroundImageFix" result="effect1_dropShadow_5818_43085"/><feBlend in="SourceGraphic" in2="effect1_dropShadow_5818_43085" result="shape"/></filter><filter id="3oya0bt8kR" x="263.494" y="111.476" width="91.921" height="88.454" filterUnits="userSpaceOnUse" color-interpolation-filters="sRGB"><feFlood flood-opacity="0" result="BackgroundImageFix"/><feColorMatrix in="SourceAlpha" values="0 0 0 0 0 0 0 0 0 0 0 0 0 0 0 0 0 0 127 0" result="hardAlpha"/><feOffset/><feGaussianBlur stdDeviation="5.192"/><feColorMatrix values="0 0 0 0 0.180392 0 0 0 0 0.811765 0 0 0 0 0.976471 0 0 0 1 0"/><feBlend in2="BackgroundImageFix" result="effect1_dropShadow_5818_43085"/><feBlend in="SourceGraphic" in2="effect1_dropShadow_5818_43085" result="shape"/></filter><filter id="33qfy69ycag" x="248.45" y="250.492" width="88.933" height="49.31" filterUnits="userSpaceOnUse" color-interpolation-filters="sRGB"><feFlood flood-opacity="0" result="BackgroundImageFix"/><feColorMatrix in="SourceAlpha" values="0 0 0 0 0 0 0 0 0 0 0 0 0 0 0 0 0 0 127 0" result="hardAlpha"/><feOffset/><feGaussianBlur stdDeviation="2.476"/><feColorMatrix values="0 0 0 0 0.137255 0 0 0 0 0.788235 0 0 0 0 0.968627 0 0 0 0.604622 0"/><feBlend in2="BackgroundImageFix" result="effect1_dropShadow_5818_43085"/><feBlend in="SourceGraphic" in2="effect1_dropShadow_5818_43085" result="shape"/></filter><filter id="853kt4orvaI" x="292.534" y="144.572" width="40.599" height="40.599" filterUnits="userSpaceOnUse" color-interpolation-filters="sRGB"><feFlood flood-opacity="0" result="BackgroundImageFix"/><feColorMatrix in="SourceAlpha" values="0 0 0 0 0 0 0 0 0 0 0 0 0 0 0 0 0 0 127 0" result="hardAlpha"/><feOffset/><feGaussianBlur stdDeviation="5.799"/><feColorMatrix values="0 0 0 0 0.180392 0 0 0 0 0.811765 0 0 0 0 0.976471 0 0 0 1 0"/><feBlend in2="BackgroundImageFix" result="effect1_dropShadow_5818_43085"/><feBlend in="SourceGraphic" in2="effect1_dropShadow_5818_43085" result="shape"/></filter><filter id="n027gt85gaL" x="335.114" y="108.721" width="91.921" height="88.454" filterUnits="userSpaceOnUse" color-interpolation-filters="sRGB"><feFlood flood-opacity="0" result="BackgroundImageFix"/><feColorMatrix in="SourceAlpha" values="0 0 0 0 0 0 0 0 0 0 0 0 0 0 0 0 0 0 127 0" result="hardAlpha"/><feOffset/><feGaussianBlur stdDeviation="5.192"/><feColorMatrix values="0 0 0 0 0.180392 0 0 0 0 0.811765 0 0 0 0 0.976471 0 0 0 1 0"/><feBlend in2="BackgroundImageFix" result="effect1_dropShadow_5818_43085"/><feBlend in="SourceGraphic" in2="effect1_dropShadow_5818_43085" result="shape"/></filter><filter id="849zfxhjjba" x="321.32" y="250.092" width="88.933" height="49.31" filterUnits="userSpaceOnUse" color-interpolation-filters="sRGB"><feFlood flood-opacity="0" result="BackgroundImageFix"/><feColorMatrix in="SourceAlpha" values="0 0 0 0 0 0 0 0 0 0 0 0 0 0 0 0 0 0 127 0" result="hardAlpha"/><feOffset/><feGaussianBlur stdDeviation="2.476"/><feColorMatrix values="0 0 0 0 0.137255 0 0 0 0 0.788235 0 0 0 0 0.968627 0 0 0 0.604622 0"/><feBlend in2="BackgroundImageFix" result="effect1_dropShadow_5818_43085"/><feBlend in="SourceGraphic" in2="effect1_dropShadow_5818_43085" result="shape"/></filter><filter id="r1wpdvzejbC" x="365.405" y="144.171" width="40.599" height="40.599" filterUnits="userSpaceOnUse" color-interpolation-filters="sRGB"><feFlood flood-opacity="0" result="BackgroundImageFix"/><feColorMatrix in="SourceAlpha" values="0 0 0 0 0 0 0 0 0 0 0 0 0 0 0 0 0 0 127 0" result="hardAlpha"/><feOffset/><feGaussianBlur stdDeviation="5.799"/><feColorMatrix values="0 0 0 0 0.180392 0 0 0 0 0.811765 0 0 0 0 0.976471 0 0 0 1 0"/><feBlend in2="BackgroundImageFix" result="effect1_dropShadow_5818_43085"/><feBlend in="SourceGraphic" in2="effect1_dropShadow_5818_43085" result="shape"/></filter><filter id="431p96vc5bF" x="407.982" y="108.32" width="91.922" height="88.454" filterUnits="userSpaceOnUse" color-interpolation-filters="sRGB"><feFlood flood-opacity="0" result="BackgroundImageFix"/><feColorMatrix in="SourceAlpha" values="0 0 0 0 0 0 0 0 0 0 0 0 0 0 0 0 0 0 127 0" result="hardAlpha"/><feOffset/><feGaussianBlur stdDeviation="5.192"/><feColorMatrix values="0 0 0 0 0.180392 0 0 0 0 0.811765 0 0 0 0 0.976471 0 0 0 1 0"/><feBlend in2="BackgroundImageFix" result="effect1_dropShadow_5818_43085"/><feBlend in="SourceGraphic" in2="effect1_dropShadow_5818_43085" result="shape"/></filter></defs></svg>