<svg width="66" height="66" fill="none" xmlns="http://www.w3.org/2000/svg"><path fill-rule="evenodd" clip-rule="evenodd" d="M6 22.221a8.024 8.024 0 014.223-7.07l19-10.201a7.982 7.982 0 017.553 0l19 10.2A8.024 8.024 0 0160 22.221v21.558a8.024 8.024 0 01-4.224 7.07l-19 10.201a7.982 7.982 0 01-7.553 0l-19-10.2A8.024 8.024 0 016 43.779V22.221z" fill="url(#k1afx52hha)"/><path fill-rule="evenodd" clip-rule="evenodd" d="M9 23.313a7.218 7.218 0 013.779-6.345l16.78-9.095a7.222 7.222 0 016.882 0l16.78 9.095A7.218 7.218 0 0157 23.313v19.374a7.218 7.218 0 01-3.779 6.345l-16.78 9.095a7.222 7.222 0 01-6.882 0l-16.78-9.095A7.218 7.218 0 019 42.687V23.313z" fill="url(#n627o70ynb)"/><path opacity=".25" d="M31.433 15.85c.635-1.309 2.499-1.309 3.134 0l3.855 7.943c.254.523.752.885 1.328.965l8.745 1.211c1.44.2 2.017 1.973.969 2.98L43.1 35.07c-.42.403-.61.99-.508 1.562l1.55 8.691c.256 1.432-1.252 2.528-2.535 1.843l-7.787-4.16a1.742 1.742 0 00-1.642 0l-7.787 4.16c-1.283.685-2.791-.41-2.536-1.843l1.55-8.691a1.742 1.742 0 00-.507-1.562l-6.363-6.12c-1.048-1.008-.472-2.781.969-2.981l8.745-1.212a1.742 1.742 0 001.328-.964l3.855-7.943z" fill="url(#j2amb8kggc)"/><path d="M31.433 15.85c.635-1.309 2.499-1.309 3.134 0l3.855 7.943c.254.523.752.885 1.328.965l8.745 1.211c1.44.2 2.017 1.973.969 2.98L43.1 35.07c-.42.403-.61.99-.508 1.562l1.55 8.691c.256 1.432-1.252 2.528-2.535 1.843l-7.787-4.16a1.742 1.742 0 00-1.642 0l-7.787 4.16c-1.283.685-2.791-.41-2.536-1.843l1.55-8.691a1.742 1.742 0 00-.507-1.562l-6.363-6.12c-1.048-1.008-.472-2.781.969-2.981l8.745-1.212a1.742 1.742 0 001.328-.964l3.855-7.943z" fill="url(#0nb1hyx8jd)"/><path opacity=".25" d="M22.427 16.181a.322.322 0 00-.578 0l-.712 1.466a.321.321 0 01-.245.178l-1.614.224a.321.321 0 00-.179.55l1.174 1.13a.322.322 0 01.094.288l-.286 1.604a.321.321 0 00.468.34l1.437-.768a.322.322 0 01.303 0l1.438.768a.321.321 0 00.468-.34l-.287-1.604a.322.322 0 01.094-.288l1.175-1.13a.321.321 0 00-.18-.55l-1.613-.224a.321.321 0 01-.245-.178l-.712-1.466z" fill="url(#g96aydrqne)"/><path d="M22.427 16.181a.322.322 0 00-.578 0l-.712 1.466a.321.321 0 01-.245.178l-1.614.224a.321.321 0 00-.179.55l1.174 1.13a.322.322 0 01.094.288l-.286 1.604a.321.321 0 00.468.34l1.437-.768a.322.322 0 01.303 0l1.438.768a.321.321 0 00.468-.34l-.287-1.604a.322.322 0 01.094-.288l1.175-1.13a.321.321 0 00-.18-.55l-1.613-.224a.321.321 0 01-.245-.178l-.712-1.466z" fill="url(#pr73nsa2nf)"/><path opacity=".25" d="M16.427 34.181a.322.322 0 00-.578 0l-.712 1.466a.321.321 0 01-.245.178l-1.614.224a.321.321 0 00-.179.55l1.175 1.13a.322.322 0 01.093.288l-.286 1.604a.321.321 0 00.468.34l1.437-.768a.322.322 0 01.303 0l1.438.768a.321.321 0 00.468-.34l-.287-1.604a.322.322 0 01.094-.288l1.175-1.13a.321.321 0 00-.18-.55l-1.613-.224a.321.321 0 01-.245-.178l-.712-1.466z" fill="url(#kgumcb8ckg)"/><path d="M16.427 34.181a.322.322 0 00-.578 0l-.712 1.466a.321.321 0 01-.245.178l-1.614.224a.321.321 0 00-.179.55l1.175 1.13a.322.322 0 01.093.288l-.286 1.604a.321.321 0 00.468.34l1.437-.768a.322.322 0 01.303 0l1.438.768a.321.321 0 00.468-.34l-.287-1.604a.322.322 0 01.094-.288l1.175-1.13a.321.321 0 00-.18-.55l-1.613-.224a.321.321 0 01-.245-.178l-.712-1.466z" fill="url(#59hd6aglph)"/><path opacity=".25" d="M33.427 48.181a.322.322 0 00-.578 0l-.712 1.466a.321.321 0 01-.245.178l-1.614.224a.321.321 0 00-.179.55l1.174 1.13a.322.322 0 01.094.288l-.286 1.604a.321.321 0 00.468.34l1.437-.768a.322.322 0 01.303 0l1.438.768a.321.321 0 00.468-.34l-.287-1.604a.322.322 0 01.094-.288l1.175-1.13a.321.321 0 00-.18-.55l-1.613-.224a.321.321 0 01-.245-.178l-.712-1.466z" fill="url(#jokseamnfi)"/><path d="M33.427 48.181a.322.322 0 00-.578 0l-.712 1.466a.321.321 0 01-.245.178l-1.614.224a.321.321 0 00-.179.55l1.174 1.13a.322.322 0 01.094.288l-.286 1.604a.321.321 0 00.468.34l1.437-.768a.322.322 0 01.303 0l1.438.768a.321.321 0 00.468-.34l-.287-1.604a.322.322 0 01.094-.288l1.175-1.13a.321.321 0 00-.18-.55l-1.613-.224a.321.321 0 01-.245-.178l-.712-1.466z" fill="url(#yxko3lazbj)"/><path opacity=".25" d="M50.427 34.181a.322.322 0 00-.578 0l-.712 1.466a.321.321 0 01-.245.178l-1.614.224a.321.321 0 00-.179.55l1.175 1.13a.322.322 0 01.093.288l-.286 1.604a.321.321 0 00.468.34l1.437-.768a.322.322 0 01.303 0l1.438.768a.321.321 0 00.468-.34l-.287-1.604a.322.322 0 01.094-.288l1.175-1.13a.321.321 0 00-.18-.55l-1.613-.224a.321.321 0 01-.245-.178l-.712-1.466z" fill="url(#0g4gnnc3ck)"/><path d="M50.427 34.181a.322.322 0 00-.578 0l-.712 1.466a.321.321 0 01-.245.178l-1.614.224a.321.321 0 00-.179.55l1.175 1.13a.322.322 0 01.093.288l-.286 1.604a.321.321 0 00.468.34l1.437-.768a.322.322 0 01.303 0l1.438.768a.321.321 0 00.468-.34l-.287-1.604a.322.322 0 01.094-.288l1.175-1.13a.321.321 0 00-.18-.55l-1.613-.224a.321.321 0 01-.245-.178l-.712-1.466z" fill="url(#f35buia8yl)"/><path opacity=".25" d="M44.427 16.181a.322.322 0 00-.578 0l-.712 1.466a.321.321 0 01-.245.178l-1.614.224a.321.321 0 00-.179.55l1.175 1.13a.322.322 0 01.093.288l-.286 1.604a.321.321 0 00.468.34l1.437-.768a.322.322 0 01.303 0l1.438.768a.321.321 0 00.468-.34l-.287-1.604a.322.322 0 01.094-.288l1.175-1.13a.321.321 0 00-.18-.55l-1.613-.224a.321.321 0 01-.245-.178l-.712-1.466z" fill="url(#ppr4z36tom)"/><path d="M44.427 16.181a.322.322 0 00-.578 0l-.712 1.466a.321.321 0 01-.245.178l-1.614.224a.321.321 0 00-.179.55l1.175 1.13a.322.322 0 01.093.288l-.286 1.604a.321.321 0 00.468.34l1.437-.768a.322.322 0 01.303 0l1.438.768a.321.321 0 00.468-.34l-.287-1.604a.322.322 0 01.094-.288l1.175-1.13a.321.321 0 00-.18-.55l-1.613-.224a.321.321 0 01-.245-.178l-.712-1.466z" fill="url(#4imqbk2qqn)"/><defs><linearGradient id="j2amb8kggc" x1="21.92" y1="22.995" x2="33.757" y2="48.832" gradientUnits="userSpaceOnUse"><stop stop-color="#8FC7FD"/><stop offset="1" stop-color="#5C87BE"/></linearGradient><linearGradient id="0nb1hyx8jd" x1="21.92" y1="22.995" x2="33.757" y2="48.832" gradientUnits="userSpaceOnUse"><stop stop-color="#8FC7FD"/><stop offset="1" stop-color="#5C87BE"/></linearGradient><linearGradient id="g96aydrqne" x1="24.183" y1="17.5" x2="21.998" y2="22.269" gradientUnits="userSpaceOnUse"><stop stop-color="#8FC7FD"/><stop offset="1" stop-color="#5C87BE"/></linearGradient><linearGradient id="pr73nsa2nf" x1="24.183" y1="17.5" x2="21.998" y2="22.269" gradientUnits="userSpaceOnUse"><stop stop-color="#8FC7FD"/><stop offset="1" stop-color="#5C87BE"/></linearGradient><linearGradient id="kgumcb8ckg" x1="18.183" y1="35.5" x2="15.998" y2="40.269" gradientUnits="userSpaceOnUse"><stop stop-color="#8FC7FD"/><stop offset="1" stop-color="#5C87BE"/></linearGradient><linearGradient id="59hd6aglph" x1="18.183" y1="35.5" x2="15.998" y2="40.269" gradientUnits="userSpaceOnUse"><stop stop-color="#8FC7FD"/><stop offset="1" stop-color="#5C87BE"/></linearGradient><linearGradient id="jokseamnfi" x1="35.183" y1="49.5" x2="32.998" y2="54.269" gradientUnits="userSpaceOnUse"><stop stop-color="#8FC7FD"/><stop offset="1" stop-color="#5C87BE"/></linearGradient><linearGradient id="yxko3lazbj" x1="35.183" y1="49.5" x2="32.998" y2="54.269" gradientUnits="userSpaceOnUse"><stop stop-color="#8FC7FD"/><stop offset="1" stop-color="#5C87BE"/></linearGradient><linearGradient id="0g4gnnc3ck" x1="52.183" y1="35.5" x2="49.998" y2="40.269" gradientUnits="userSpaceOnUse"><stop stop-color="#8FC7FD"/><stop offset="1" stop-color="#5C87BE"/></linearGradient><linearGradient id="f35buia8yl" x1="52.183" y1="35.5" x2="49.998" y2="40.269" gradientUnits="userSpaceOnUse"><stop stop-color="#8FC7FD"/><stop offset="1" stop-color="#5C87BE"/></linearGradient><linearGradient id="ppr4z36tom" x1="46.183" y1="17.5" x2="43.998" y2="22.269" gradientUnits="userSpaceOnUse"><stop stop-color="#8FC7FD"/><stop offset="1" stop-color="#5C87BE"/></linearGradient><linearGradient id="4imqbk2qqn" x1="46.183" y1="17.5" x2="43.998" y2="22.269" gradientUnits="userSpaceOnUse"><stop stop-color="#8FC7FD"/><stop offset="1" stop-color="#5C87BE"/></linearGradient><radialGradient id="k1afx52hha" cx="0" cy="0" r="1" gradientUnits="userSpaceOnUse" gradientTransform="rotate(52.666 -.298 25.93) scale(53.5896 48.1998)"><stop stop-color="#6CA7E7"/><stop offset="1" stop-color="#345385"/></radialGradient><radialGradient id="n627o70ynb" cx="0" cy="0" r="1" gradientUnits="userSpaceOnUse" gradientTransform="matrix(0 53.9852 -48 0 33 6.007)"><stop stop-color="#263A5E"/><stop offset="1" stop-color="#0C1321"/></radialGradient></defs></svg>